<svg id="b93bed59-1da4-4712-944b-5d85eb59a1ce" data-name="Layer 4" xmlns="http://www.w3.org/2000/svg" width="4.87in" height="2.02in" viewBox="0 0 350.81 145.4"><path d="M18.34,87.71,19,88l.46,1.13L55.59,73l11.47-5.42.16-1.23.38-2.53h.1L83.54,74,99,95.29v-.72L83.75,73.22l-16-10.08-5.68,1-6.43,1.18L41.52,67.94,17,85.94v.65l1.27.51ZM42.7,71.4l21.7-3.75L20.62,87.11Z" fill="#fff"/><polygon points="42.37 72.55 24.77 84.74 59.74 69.19 42.37 72.55" fill="#fff"/><path d="M82.91,110.82a2.13,2.13,0,0,0,1.06-.26c1.21-.67,1.76-2.55,1.52-5.16-.45-4.89-3.54-11-6.89-13.52-1.47-1.12-2.82-1.44-3.82-.89-1.21.67-1.76,2.55-1.52,5.16A23.2,23.2,0,0,0,78,107.46l-9.15-8-52.13,20.2v1.92l51.72-20L101.54,130l1.15-1L81.33,110.4A3.7,3.7,0,0,0,82.91,110.82ZM73.39,96.14c-.23-2.56.3-4.39,1.46-5a2,2,0,0,1,1-.25A4.6,4.6,0,0,1,78.51,92c3.33,2.54,6.4,8.57,6.84,13.42.24,2.56-.29,4.39-1.45,5a3,3,0,0,1-3-.44l-2.24-2A22.9,22.9,0,0,1,73.39,96.14Z" fill="#fff"/><path d="M81,97.13l-.06.11h0l0,0,0,0h0a.43.43,0,0,0,0,.05l.1.14a1,1,0,0,1,.09.15h0s0,0,0,0v0s0-.06,0-.18l.22-.49c0-.05,0-.1.06-.1h0l0,0h0a0,0,0,0,0,0,0l-.1-.14-.09-.15h0s0,0,0,.05v0s0,.06,0,.18Z" fill="#fff"/><path d="M82.51,100.27a0,0,0,0,0,0,0s0,0,0,0h0v0s0,0,.09-.08l.41-.13c.1,0,.11,0,.13,0l0,0h0a0,0,0,0,0,0,0c0-.06,0-.11-.07-.16s-.05-.11-.07-.18h0s0,0,0,0v0s0,0-.09.08l-.41.12c-.11,0-.11,0-.14,0l0,0h0l0,0,.08.17A1.22,1.22,0,0,0,82.51,100.27Zm0,0Zm.69-.21Z" fill="#fff"/><path d="M83.31,100.4s0,0-.09,0l-.44.06c-.11,0-.11,0-.14,0l0,0h0s0,0,0,0h0c0,.06.05.12.07.17s0,.11.06.18h0s0,0,0,0v0s0,0,0,0a.16.16,0,0,1,.1,0l.43-.06c.11,0,.12,0,.14,0l0,0h0l0,0h0c0-.06,0-.12-.07-.17s-.05-.11-.07-.18,0,0,0,0h0v0S83.32,100.39,83.31,100.4Z" fill="#fff"/><path d="M83.5,103.46l0,0a.09.09,0,0,0,0,0h0l0,.16s0,.1,0,.16,0,0,.06,0h0v0h0l.13.07.54.34c.13.09.15.1.16.15l0,0,0,0h0l0-.16s0-.1,0-.15a.08.08,0,0,0-.06,0h0v0h0L84.2,104l-.54-.34C83.53,103.53,83.51,103.51,83.5,103.46Z" fill="#fff"/><path d="M83.52,104.17s0,0,.06,0h0v0h0a.56.56,0,0,1,.14.09l.55.4c.13.1.14.11.16.16v0l.06,0h0a.77.77,0,0,1,0-.15s0-.09,0-.16,0,0-.06,0h0v0h0l-.13-.09-.55-.4c-.14-.1-.15-.11-.17-.17v0l0,0h0s0,.09,0,.15S83.52,104.11,83.52,104.17Z" fill="#fff"/><path d="M84.55,105.15a.13.13,0,0,0-.06-.05h0v0h0s-.06,0-.13-.1l-.56-.46c-.14-.12-.15-.14-.16-.19v0a.13.13,0,0,0-.06,0h0s0,.1,0,.15v.14s0,.05.06.05h0v0h0l.13.11.55.46c.14.12.16.14.17.19v0s0,0,.06,0h0a.76.76,0,0,0,0-.15Z" fill="#fff"/><path d="M83.47,106.39l0-.08h0a.36.36,0,0,1,0,.11l0,.1h0s0,.07.06.07h0l0,0h0a.94.94,0,0,1,.15.18l.53.72c.13.19.14.2.14.25v0l.06.07h0l0-.11a.54.54,0,0,1,0-.1h0l0-.07h0s0,0-.16-.18l-.53-.72c-.14-.18-.15-.2-.15-.24Z" fill="#fff"/><path d="M84.26,108h0s0-.06-.05-.07h0s0,0-.16-.19l-.52-.76c-.13-.19-.14-.21-.13-.25v0a.14.14,0,0,0-.05-.08h0l0,.1,0,.08h0s0,.07.05.07h0s0,0,.15.19l.52.76c.13.19.13.21.13.25v0a.24.24,0,0,0,.06.08h0a.46.46,0,0,1,0-.09.39.39,0,0,1,0-.09Z" fill="#fff"/><path d="M83.21,106.89h0a.19.19,0,0,1,0,.09.22.22,0,0,1-.05.08h0l.05.08h0s0,0,.15.21l.5.79c.13.2.14.22.13.26v0l.05.08h0a.36.36,0,0,1,0-.09l0-.08h0l-.05-.07h0s0,0-.15-.21l-.5-.79c-.13-.2-.14-.22-.14-.26v0Z" fill="#fff"/><path d="M84,108.63h0l0-.08h0s0,0-.15-.21l-.48-.83c-.12-.21-.13-.23-.12-.26v0l-.05-.08h0l0,.08-.05.06h0a.3.3,0,0,0,0,.08h0s0,0,.15.21l.48.83c.12.21.13.23.13.27v0l0,.09h0l0-.07.06-.07Z" fill="#fff"/><path d="M82.63,109.36s0,0-.14-.26l-.46-1-.08-.18,0-.1s0,0,0,0,0,0,0,0,0,.11,0,.18l.12.45.12.43c0,.19.08.33.1.41s0,.07,0,.09h0a.79.79,0,0,0,0,.09h.13a.47.47,0,0,0,0-.09h0a.05.05,0,0,1,0,0,.3.3,0,0,1,0-.09c0-.08-.1-.36-.14-.52l-.07-.23,0-.1.06.11.25.55c.07.17.11.25.12.27s0,0,0,0v0h0a.32.32,0,0,0,0,.09h.17a.19.19,0,0,0,0-.09Z" fill="#fff"/><path d="M80.65,108.92h0s0-.06,0-.08l0,0s0,0-.08-.26l-.24-1a1,1,0,0,0,0-.17l0-.11,0,0h0s0,0,0,0a.86.86,0,0,0,0,.15v1.08s0,0,0,0,0,0,0,0h0a.24.24,0,0,0,0,.08l.06,0,.08.06h0s0-.07,0-.08l0,0s0,0,0,0v-.08c0-.07,0-.3,0-.43v-.29h0l0,.12.12.55a2,2,0,0,1,.06.27,0,0,0,0,1,0,0h0a.31.31,0,0,0,0,.08l.1.06,0,0Z" fill="#fff"/><path d="M80,108.49h0a.25.25,0,0,0,0-.08l0,0s0-.06,0-.26l-.06-.79a.58.58,0,0,1,0-.2h0a.25.25,0,0,0,0-.08l-.11-.08-.1-.09h0a.14.14,0,0,0,0,.09l0,0s0,.06,0,.26l.06.79a1.11,1.11,0,0,1,0,.2h0s0,.07,0,.09l.1.07.11.09Z" fill="#fff"/><path d="M78.23,106.34l.06-.79a.45.45,0,0,1,0-.11.28.28,0,0,1,0-.1l0,0s0,0,0,0h0l0,.08c0,.06-.08.14-.13.23l-.12.21a1.32,1.32,0,0,1-.12.19s0,0,0,0l0,0h0s0,0,0,.06l.06.08.08.11h0s0,0,0-.06l0,0a.13.13,0,0,1,0,0s0,0,0,0l.14-.26.06-.11a.43.43,0,0,1,0-.07.41.41,0,0,0,0,.12l0,.43c0,.09,0,.19,0,.2h0l0,0h0a.06.06,0,0,0,0,.06l.1.13.06.08,0,0h0a.08.08,0,0,0,0,0l0,0C78.22,106.51,78.22,106.51,78.23,106.34Z" fill="#fff"/><path d="M77.87,105.07l.06-.11h0a0,0,0,0,1,0,0l0,0h0a0,0,0,0,0,0,0l-.09-.14-.1-.14h0a0,0,0,0,0,0,0v0c0,.05,0,.07,0,.19l-.2.51c0,.06,0,.1-.06.11h0l0,0h0s0,0,0,0l.1.14.09.15h0a.14.14,0,0,0,0-.06l0,0s0-.06,0-.19Z" fill="#fff"/><path d="M77.27,105.32h0s0,0,0,0v0s0-.06,0-.17l.24-.45q0-.09.06-.09h0l0,0,0,0h0s0,0,0,0l-.09-.15a1.3,1.3,0,0,1-.1-.15h0a.43.43,0,0,0,0,.05v0s0,.06,0,.18l-.23.44-.07.1h0l0,0s0,0,0,0a.08.08,0,0,0,0,0l.1.14Z" fill="#fff"/><path d="M76.34,101.9h-.09l-.24,0-.22,0-.23,0a.13.13,0,0,1-.06,0l0,0h0s0,0,0,0a1,1,0,0,1,0,.1,1,1,0,0,1,.06.14h0a0,0,0,0,0,0,0v0s0,0,0,0h.07l.24,0h.2L76,102l-.21.17-.09.08s0,0,0,0l0,0h0l.07.17a.36.36,0,0,1,0,.09l0,.07h0v0s0,0,.08-.12l.37-.32.06,0,0,0a.08.08,0,0,0,0,0A.05.05,0,0,0,76.34,101.9Zm-.78.1Z" fill="#fff"/><path d="M75.89,101.24l-.44,0c-.11,0-.11,0-.14,0l0,0h0s0,0,0,0h0l.06.17.07.18h0v-.08l.11,0,.43,0c.11,0,.12,0,.15,0l0,0h0a1.22,1.22,0,0,1-.07-.17s0-.1-.06-.17h0s0,0,0,0v0s0,0,0,0A.16.16,0,0,1,75.89,101.24Z" fill="#fff"/><path d="M75.18,100.85h.11l.46,0c.12,0,.13,0,.16.06v0h0s0,0,0,0h0a1.2,1.2,0,0,1-.06-.17c0-.06,0-.11-.06-.18h0v.08h0s0,0-.11,0l-.46,0c-.12,0-.13,0-.15-.06l0,0H75a.7.7,0,0,1,.06.17,1.25,1.25,0,0,1,.06.18h.06v-.07Z" fill="#fff"/><path d="M74.93,100.31h0v-.06h0s0,0,.11,0l.48.09c.13,0,.14,0,.16.09l0,0a.05.05,0,0,0,0,0h0a1.54,1.54,0,0,1,0-.17s0-.1-.05-.17l0,0h0v0s0,0,0,0h0s-.05,0-.11,0l-.49-.1c-.12,0-.13,0-.15-.08l0,0,0,0h0a1.62,1.62,0,0,0,.06.17A1.67,1.67,0,0,0,74.93,100.31Z" fill="#fff"/><path d="M75.2,97.88v0s0,0,.06,0h0c0-.06,0-.11,0-.16a.66.66,0,0,1,0-.15l-.06,0h0v0h0L75,97.56l-.55-.43c-.14-.11-.15-.12-.17-.18v0s0,0,0,0h0c0,.06,0,.11,0,.15v.15a.13.13,0,0,0,.06,0h0v0h0s.06,0,.13.09l.55.43C75.17,97.82,75.18,97.83,75.2,97.88Z" fill="#fff"/><path d="M74.22,96.65s0,0,.06,0h0v0h0a0,0,0,0,1,0,0h0l.25.12.07,0,0,0s0,0,0,.06l.27.35a.93.93,0,0,1,.13.23v0s0,0,.06,0h0a.34.34,0,0,1,0-.1v-.13s0,0-.06,0h0v0h0l0,0-.27-.35.21.11.09,0,0,0v0s0,0,.06,0h0a.81.81,0,0,1,0-.16v-.15a.13.13,0,0,0-.06,0h0v0h0s0,0-.09,0l-.36-.19,0,0,0-.06h0l-.28-.38a.29.29,0,0,1,0-.09v0s0,0-.06,0h0a.41.41,0,0,1,0,.11v.11s0,.06.06.06h0v0s0,0,0,0l.18.23,0,0-.18-.09,0,0s0,0,0,0v0s0-.05-.06-.05h0s0,.07,0,.14Z" fill="#fff"/><path d="M74.53,94h0l0,.08h0l0,0s0,0,0,0l.21.23a1.58,1.58,0,0,0,.13.13s0,0,0,.06a.21.21,0,0,1,0,.07c.08.17.17.35.21.45a.55.55,0,0,1,.09.24v0s0,.07,0,.07h0a.19.19,0,0,1,0-.07l0-.07h0a.14.14,0,0,0,0-.08h0l0-.06-.21-.43.21.24a.38.38,0,0,1,.09.11s0,0,0,0v0s0,.07,0,.07h0a.42.42,0,0,1,0-.1.24.24,0,0,1,0-.09h0l0-.08h0s0,0-.11-.09l0,0-.35-.38s0,0,0-.05,0,0,0-.09-.16-.34-.21-.47a.15.15,0,0,1,0-.08v0s0-.07,0-.07h0l0,.08,0,.06h0l0,.08h0a0,0,0,0,0,0,0s0,0,0,.07l.12.26,0,.07a1.8,1.8,0,0,1-.18-.2L74.69,94a.07.07,0,0,1,0,0v0a.24.24,0,0,0-.06-.08h0a.29.29,0,0,1,0,.09l0,.09Z" fill="#fff"/><path d="M76.77,94.2h0l0-.09h0s0,0-.12-.16-.18-.3-.33-.57a.54.54,0,0,1,0-.08.27.27,0,0,0,0-.08l-.1-.46s0-.06,0-.07h0a.18.18,0,0,0,0-.09h0l0,0h-.07a.25.25,0,0,0,0,.09h0s0,0,0,0,0,0,0,.07.06.22.09.33L76,92.85v0l0-.08s0,0,0,0v0h0a.79.79,0,0,0,0-.09h0l-.07,0h-.09a.18.18,0,0,0,0,.09h0s0,0,.1.11.13.23.19.34a1.94,1.94,0,0,0,.1.17l0,.07a.31.31,0,0,0,0,.08l.12.45a.71.71,0,0,1,0,.21v0a.19.19,0,0,0,0,.08h0l0,0,.07,0h0a.21.21,0,0,0,0-.1h0s0,0,0,0a.64.64,0,0,1,0-.07c0-.13-.08-.28-.13-.43.06.09.16.27.19.32s.07.12.07.14,0,0,0,0h0a.25.25,0,0,0,0,.09h0l.08,0Zm-1-1.43,0,0Z" fill="#fff"/><path d="M77,94.1l0,0s0,0-.13-.26l-.33-.91c-.08-.22-.09-.24-.07-.26h0a.47.47,0,0,0,0-.09h-.18a.23.23,0,0,0,0,.09h0s0,0,.13.26l.33.91c.08.23.09.24.07.26v0h0a.32.32,0,0,0,0,.09H77A.24.24,0,0,0,77,94.1Z" fill="#fff"/><path d="M78,93h0a.34.34,0,0,0,0,.09h0a.34.34,0,0,1,.07.16c.05.15.12.36.16.5v0l0,.08V94c0,.12,0,.27,0,.35s0,.13,0,.13h0a.31.31,0,0,0,0,.08l.07,0,.09.06h0s0-.07,0-.09h0l0,0v-.06c0-.13,0-.26,0-.35l.11.37c0,.11,0,.13,0,.15h0s0,.08,0,.09l.11.07.1.07h0a.14.14,0,0,0,0-.09l0,0a.46.46,0,0,1-.09-.2l-.19-.63s0-.07,0-.08v-.07a2.62,2.62,0,0,1,0-.35s0,0,0,0h0a.31.31,0,0,0,0-.08l-.08,0-.07,0h0a.37.37,0,0,0,0,.09l0,0a0,0,0,0,1,0,0s0,0,0,.06a1.48,1.48,0,0,0,0,.21v0l-.09-.31h0l0-.08s0,0,0,0h0a.29.29,0,0,0,0-.09l-.1-.06Z" fill="#fff"/><path d="M78.59,93.42h0a.27.27,0,0,0,0,.09l0,0s0,.06.06.26l.08.81a.56.56,0,0,1,0,.2h0a.14.14,0,0,0,0,.09l.1.07.1.08h0s0-.06,0-.08l0,0s0-.05-.05-.26l-.08-.8a.63.63,0,0,1,0-.21h0s0-.06,0-.08l-.1-.07Z" fill="#fff"/><path d="M79,93.83s0,.06,0,.26l0,.77a1,1,0,0,1,0,.19h0a.11.11,0,0,0,0,.08l.11.08a.94.94,0,0,1,.1.1h0a.27.27,0,0,0,0-.09l0,0s0-.06,0-.26l0-.77a.51.51,0,0,1,0-.19h0s0-.06,0-.08l-.11-.08a.94.94,0,0,0-.1-.1h0a.11.11,0,0,0,0,.08Z" fill="#fff"/><path d="M77.61,92.14a.4.4,0,0,0-.15-.23c-.06,0-.1,0-.07.13a.38.38,0,0,0,.14.24C77.6,92.31,77.63,92.25,77.61,92.14Z" fill="#fff"/><path d="M81.17,109.73a.36.36,0,0,0,.15.23c.06,0,.09,0,.07-.13a.34.34,0,0,0-.15-.23C81.18,109.57,81.15,109.63,81.17,109.73Z" fill="#fff"/><path d="M76.9,91.69c-.06,0-.08.06-.05.16a.39.39,0,0,0,.15.22c.06,0,.09,0,.06-.16A.35.35,0,0,0,76.9,91.69Z" fill="#fff"/><path d="M81.77,109.8s-.08,0,0,.16a.35.35,0,0,0,.16.22c.05,0,.08-.05.05-.16A.35.35,0,0,0,81.77,109.8Z" fill="#fff"/><path d="M76.5,92s.07-.07,0-.18-.11-.19-.16-.2-.08.07,0,.18S76.44,92,76.5,92Z" fill="#fff"/><path d="M82.28,109.91c-.06,0-.07.07,0,.18s.11.2.16.2.07-.07,0-.18A.31.31,0,0,0,82.28,109.91Z" fill="#fff"/><path d="M76,92c.06,0,.07-.09,0-.2s-.12-.19-.17-.18-.06.09,0,.2S76,92,76,92Z" fill="#fff"/><path d="M82.75,109.92s-.06.1,0,.2.11.19.17.18.06-.09,0-.2S82.8,109.92,82.75,109.92Z" fill="#fff"/><path d="M75.59,92s0-.11,0-.22-.12-.17-.16-.16-.05.11,0,.22S75.54,92.05,75.59,92Z" fill="#fff"/><path d="M83.19,109.83s0,.12,0,.22.11.18.16.16.05-.11,0-.21S83.24,109.82,83.19,109.83Z" fill="#fff"/><path d="M75.19,92.22s0-.13,0-.23-.12-.16-.16-.14,0,.13,0,.24S75.15,92.25,75.19,92.22Z" fill="#fff"/><path d="M83.58,109.65s0,.13,0,.23.12.17.16.14,0-.13,0-.23S83.63,109.62,83.58,109.65Z" fill="#fff"/><path d="M74.84,92.5s0-.14,0-.24-.12-.15-.16-.11,0,.14,0,.24S74.81,92.54,74.84,92.5Z" fill="#fff"/><path d="M83.93,109.37a.27.27,0,0,0,0,.24c.06.1.13.15.17.12a.27.27,0,0,0,0-.25C84,109.38,84,109.33,83.93,109.37Z" fill="#fff"/><path d="M74.55,92.88s0-.16,0-.26-.13-.13-.16-.09a.3.3,0,0,0,0,.26C74.44,92.89,74.51,92.92,74.55,92.88Z" fill="#fff"/><path d="M84.23,109a.28.28,0,0,0,0,.25c.06.1.13.13.16.09a.3.3,0,0,0,0-.26C84.33,109,84.26,109,84.23,109Z" fill="#fff"/><path d="M74.3,93.34a.36.36,0,0,0-.06-.27c-.06-.08-.13-.11-.16,0a.36.36,0,0,0,.07.26C74.21,93.37,74.27,93.39,74.3,93.34Z" fill="#fff"/><path d="M84.48,108.53a.32.32,0,0,0,.06.27c.06.09.13.11.15.06a.32.32,0,0,0-.06-.27C84.57,108.5,84.5,108.48,84.48,108.53Z" fill="#fff"/><path d="M74.11,93.88a.39.39,0,0,0-.08-.27c-.06-.08-.13-.09-.15,0a.42.42,0,0,0,.08.27C74,93.93,74.09,94,74.11,93.88Z" fill="#fff"/><path d="M84.67,108a.37.37,0,0,0,.08.27c.06.08.12.09.14,0a.37.37,0,0,0-.08-.27C84.75,107.94,84.69,107.92,84.67,108Z" fill="#fff"/><path d="M74,94.5a.4.4,0,0,0-.1-.27c-.06-.07-.12-.07-.13,0a.4.4,0,0,0,.09.27C73.9,94.58,74,94.58,74,94.5Z" fill="#fff"/><path d="M84.8,107.37a.44.44,0,0,0,.09.27c.07.07.13.07.14,0a.44.44,0,0,0-.09-.27C84.87,107.3,84.81,107.29,84.8,107.37Z" fill="#fff"/><path d="M73.9,95.2a.41.41,0,0,0-.1-.27c-.07-.07-.12-.06-.13,0a.43.43,0,0,0,.11.27C73.84,95.29,73.9,95.28,73.9,95.2Z" fill="#fff"/><path d="M84.87,106.68a.43.43,0,0,0,.11.26c.07.07.12.06.13,0a.49.49,0,0,0-.11-.27C84.93,106.58,84.88,106.59,84.87,106.68Z" fill="#fff"/><path d="M73.89,96a.42.42,0,0,0-.12-.26c-.06-.06-.12,0-.11,0a.4.4,0,0,0,.12.27C73.84,96.06,73.89,96,73.89,96Z" fill="#fff"/><path d="M84.89,105.92a.4.4,0,0,0,.12.27c.06,0,.11,0,.11-.06a.42.42,0,0,0-.12-.26C84.94,105.81,84.88,105.83,84.89,105.92Z" fill="#fff"/><path d="M73.94,96.76a.46.46,0,0,0-.13-.26c-.07,0-.11,0-.1.08a.35.35,0,0,0,.13.26C73.9,96.89,74,96.86,73.94,96.76Z" fill="#fff"/><path d="M84.84,105.11a.46.46,0,0,0,.13.26c.07,0,.11,0,.1-.08a.43.43,0,0,0-.13-.26C84.88,105,84.83,105,84.84,105.11Z" fill="#fff"/><path d="M74,97.62a.35.35,0,0,0-.14-.25c-.06,0-.1,0-.08.11a.36.36,0,0,0,.14.24C74,97.76,74.06,97.72,74,97.62Z" fill="#fff"/><path d="M84.73,104.26a.44.44,0,0,0,.14.24c.07,0,.11,0,.09-.1a.44.44,0,0,0-.14-.25C84.76,104.11,84.72,104.16,84.73,104.26Z" fill="#fff"/><path d="M74,98.41a.36.36,0,0,0,.15.23c.06,0,.09,0,.07-.13a.39.39,0,0,0-.15-.24C74,98.25,74,98.3,74,98.41Z" fill="#fff"/><path d="M84.79,103.47a.36.36,0,0,0-.15-.24c-.06,0-.09,0-.07.13a.39.39,0,0,0,.15.24C84.78,103.63,84.81,103.57,84.79,103.47Z" fill="#fff"/><path d="M74.28,99.21c-.06,0-.09.05-.06.15s.1.21.16.22.08,0,.05-.15S74.33,99.22,74.28,99.21Z" fill="#fff"/><path d="M84.5,102.67c.06,0,.08-.06.06-.16a.33.33,0,0,0-.16-.22c-.06,0-.08,0-.05.15A.31.31,0,0,0,84.5,102.67Z" fill="#fff"/><path d="M74.55,100.16c-.06,0-.07.07,0,.18a.31.31,0,0,0,.16.2c.06,0,.07-.07,0-.18S74.6,100.17,74.55,100.16Z" fill="#fff"/><path d="M84.23,101.71s.07-.07,0-.18-.11-.19-.16-.2-.08.07,0,.18S84.17,101.71,84.23,101.71Z" fill="#fff"/><path d="M74.87,101.12c-.05,0-.06.09,0,.2s.11.19.17.18.06-.09,0-.2S74.92,101.12,74.87,101.12Z" fill="#fff"/><path d="M83.9,100.75c.06,0,.07-.09,0-.2s-.12-.18-.17-.18-.06.09,0,.2S83.85,100.76,83.9,100.75Z" fill="#fff"/><path d="M75.25,102.08s0,.11,0,.22.12.17.17.16,0-.11,0-.22S75.29,102.06,75.25,102.08Z" fill="#fff"/><path d="M83.53,99.79s0-.11,0-.21-.11-.18-.16-.17-.05.12,0,.22S83.48,99.81,83.53,99.79Z" fill="#fff"/><path d="M75.67,103s0,.13,0,.23.12.16.16.14,0-.13,0-.24S75.71,103,75.67,103Z" fill="#fff"/><path d="M83.11,98.85s0-.13,0-.24-.13-.16-.17-.13,0,.13,0,.23S83.07,98.87,83.11,98.85Z" fill="#fff"/><path d="M76.13,104s0,.15,0,.25.12.14.16.11,0-.15,0-.25S76.16,103.91,76.13,104Z" fill="#fff"/><path d="M82.65,97.92s0-.14,0-.24-.13-.15-.16-.12,0,.15,0,.25S82.61,98,82.65,97.92Z" fill="#fff"/><path d="M76.62,104.84a.3.3,0,0,0,0,.26c.06.09.13.13.16.08a.28.28,0,0,0,0-.25C76.72,104.83,76.65,104.79,76.62,104.84Z" fill="#fff"/><path d="M82.15,97s0-.16,0-.25-.13-.14-.16-.09A.3.3,0,0,0,82,97C82.05,97,82.12,97.08,82.15,97Z" fill="#fff"/><path d="M77.15,105.69a.31.31,0,0,0,.06.26c.06.09.13.12.15.06a.3.3,0,0,0-.06-.26C77.24,105.66,77.17,105.63,77.15,105.69Z" fill="#fff"/><path d="M81.63,96.18a.36.36,0,0,0-.07-.26c0-.09-.12-.11-.15-.06a.38.38,0,0,0,.07.27C81.54,96.21,81.6,96.24,81.63,96.18Z" fill="#fff"/><path d="M77.7,106.48a.37.37,0,0,0,.08.27c.06.08.13.1.14,0a.32.32,0,0,0-.08-.26C77.78,106.43,77.72,106.42,77.7,106.48Z" fill="#fff"/><path d="M81.08,95.39a.37.37,0,0,0-.08-.27c-.06-.08-.13-.1-.15,0a.45.45,0,0,0,.08.27C81,95.44,81.06,95.45,81.08,95.39Z" fill="#fff"/><path d="M78.27,107.22a.44.44,0,0,0,.09.27c.07.07.13.08.14,0a.4.4,0,0,0-.1-.27C78.34,107.15,78.28,107.15,78.27,107.22Z" fill="#fff"/><path d="M80.51,94.65a.4.4,0,0,0-.1-.27c-.06-.07-.12-.07-.13,0a.42.42,0,0,0,.09.27C80.44,94.73,80.5,94.73,80.51,94.65Z" fill="#fff"/><path d="M78.85,107.88a.39.39,0,0,0,.11.27c.06.07.12.06.12,0a.41.41,0,0,0-.1-.27C78.91,107.79,78.86,107.8,78.85,107.88Z" fill="#fff"/><path d="M79.93,94a.49.49,0,0,0-.11-.27c-.07-.07-.12-.06-.13,0a.46.46,0,0,0,.11.27C79.87,94.08,79.92,94.07,79.93,94Z" fill="#fff"/><path d="M79.44,108.47a.4.4,0,0,0,.12.27c.06.06.11,0,.11,0a.4.4,0,0,0-.12-.27C79.49,108.36,79.44,108.39,79.44,108.47Z" fill="#fff"/><path d="M79.34,93.4a.45.45,0,0,0-.12-.27c-.07-.06-.12,0-.11.06a.39.39,0,0,0,.12.26C79.29,93.51,79.34,93.49,79.34,93.4Z" fill="#fff"/><path d="M80,109a.35.35,0,0,0,.13.26c.06.05.11,0,.1-.08a.46.46,0,0,0-.13-.26C80.06,108.85,80,108.89,80,109Z" fill="#fff"/><path d="M78.75,92.89a.46.46,0,0,0-.13-.26c-.06,0-.11,0-.1.08a.43.43,0,0,0,.13.26C78.72,93,78.76,93,78.75,92.89Z" fill="#fff"/><path d="M80.69,109.29c-.06,0-.1,0-.08.11a.35.35,0,0,0,.14.25c.06,0,.1,0,.08-.11A.39.39,0,0,0,80.69,109.29Z" fill="#fff"/><path d="M78.17,92.47a.39.39,0,0,0-.14-.25c-.06,0-.1,0-.09.11a.4.4,0,0,0,.15.25C78.15,92.62,78.19,92.57,78.17,92.47Z" fill="#fff"/><path d="M79.64,101.89l1.23,2.84-.06,0s0,0,0,.06l.08.19s0,0,0,0H81l1.1,2.47a.46.46,0,0,0,0,.37.5.5,0,0,0,.27.31l.43,1c0,.1.1.09.06,0l-.39-1a.46.46,0,0,0,0-.37.57.57,0,0,0-.22-.29l-1-2.53.06,0s0,0,0-.06l-.08-.19s0,0,0,0h0l-1.17-3c-.12-.33-.26-.65-.39-.94l.09-.06.69-1.06.35-.35.14.35s0,.06,0,0l0-.07s0,0,0-.09l-.14-.33L81,99c.13.25.27.39.34.31s0-.33,0-.61l.39-.4s0-.13-.08-.11l-.42.22c-.14-.3-.3-.47-.38-.38a.84.84,0,0,0,0,.56l-.17.09-.13-.31s0-.06,0,0l-.06.07a.2.2,0,0,0,0,.09l.11.25-.55.28-1.16.41a.8.8,0,0,0-.23,1.12.76.76,0,0,0,.63.29C79.33,101.19,79.48,101.54,79.64,101.89Z" fill="#fff"/><polygon points="73.16 50.38 73.55 49.74 74.09 49.74 74.24 49.15 70.4 44.86 69.36 46.71 69.36 49.4 72.89 53.05 73.16 50.38" fill="#fff"/><polygon points="72.28 55.07 69.58 52.3 69.58 53.05 72.28 55.84 72.28 55.07" fill="#fff"/><polygon points="72.28 57.34 69.64 54.62 69.64 55.39 72.28 58.06 72.28 57.34" fill="#fff"/><polygon points="72.35 59.6 69.74 56.96 69.74 57.74 72.35 60.34 72.35 59.6" fill="#fff"/><polygon points="72.39 61.77 69.84 59.3 69.84 60.14 72.35 62.59 72.39 61.77" fill="#fff"/><polygon points="72.49 64.22 69.93 61.7 69.93 62.45 72.49 64.92 72.49 64.22" fill="#fff"/><polygon points="94.52 97.86 66.19 70.81 23.95 89.49 25.07 90.95 66.19 73.32 92.23 98.14 94.52 97.86" fill="#fff"/><path d="M54.84,30.92h0L41.05,37.08,38.31,48.51,42,52.1,41.9,66.74l5.87-1v-.23l6.13-2.7v.86l-4,1.72,11.51-1.9L57.52,63v-.86l6.91.86,2.79-.46.25-22.7,1.7-3.19,7.3,8.19-1,1.31L75.4,47l.8.72L75.74,49l.73,3.85L80,43.23,71.47,33,57.91,30.75ZM43.75,65.22l-.21.41V55.84l.38-.49Zm.35-12.17-.56,1.4-.11-.81L43,53.32l1.12-3.56Zm9.8,8.17L47.77,64v-.83l6.13-2.71Zm.19-2.36L47.9,61.6v-.86L54.09,58Zm0-2.41L47.9,59.22v-.79l6.19-2.73Zm0-2.36L47.9,56.86v-.75l6.19-2.79Zm.1-2.31L47.9,54.62v-.76L54.19,51Zm.1-2.27L48,52.4v-.93l6.29-2.78Zm-7.15-.41V45.92l-.57-1.06,7.16-3.06.35,1.53.21,2.82Zm10.25-1,8.12,1.09v.83l-8.12-1.22Zm0,2.29,8.12,1.11v.76l-8.12-1.1Zm0,2.23,8.19,1.17v.79L57.31,53.4S57.39,52.66,57.39,52.66Zm8.26,3.47V57l-8.26-1.12v-.9C57.45,54.9,65.65,56.13,65.65,56.13Zm-8.26,2.12v-.87l8.26,1.15v.77Zm8.38,3.45-8.25-1.07v-.84l8.25,1.15ZM66,42.51l-.84,2v2.62l-7.45-1.39V43.13l1.11-2Z" fill="#fff"/><path d="M40.82,36.77l13.91-6.54h0l3.48-.1L71.6,32.39l-.13.61.43-2.08,8.65,10.54,1-.42L72.39,29.88,60.71,27.79,60.43,26l-.89-.69-.73-5.08-.88-.47V16.09a2.23,2.23,0,0,0,0-4.44V0h-.5V11.65a2.23,2.23,0,0,0,0,4.44v3.66l-1.26.44L55.2,25l-.77.73v1h0L39.25,34c-.15-.3-2.84,12.42-2.84,12.42l1.65,1.5ZM58.48,20.43l.7,4.89,0,.15.12.09.77.6.18,1.18-2-.36-.12-6.73Zm.88-6.56a1.57,1.57,0,0,1-1.43,1.68V12.19A1.57,1.57,0,0,1,59.36,13.87Z" fill="#fff"/><polygon points="16.72 124.63 16.72 130.74 68.45 112.33 94.99 130.94 98.95 130.94 68.09 105.05 16.72 124.63" fill="#fff"/><polygon points="21.01 130.84 90.24 130.94 68.48 115.64 21.01 130.84" fill="#fff"/><polygon points="83.02 75.48 68.24 67.1 82.55 76.22 93.73 91.77 83.02 75.48" fill="#fff"/><polygon points="69.05 80.48 88.19 99 88.31 114.75 89.36 115.79 89.12 98.37 69.05 79.06 69.05 80.48" fill="#fff"/><polygon points="76.39 67.47 76.44 54.43 76.14 53.64 76.01 67.22 76.39 67.47" fill="#fff"/><path d="M66.19,74.75l-10.6,4.48L26.8,91.32l-2.44,1.11v.26l.57.46v.47l.42.39L24,115.7l3.86-1.49L29.39,92.4,62.44,77.94l-.79,1.28L30.13,92.78l-1.25,21,14.74-5.69-.37,0a7.3,7.3,0,0,1-4.85-1.7A7.81,7.81,0,0,1,36,99.68c.45-5.76,5.43-11.51,11.11-12.82a7.91,7.91,0,0,1,7.14,1.42A7.79,7.79,0,0,1,56.65,95a15.13,15.13,0,0,1-6,10.37l16.18-6.26Z" fill="#fff"/><path d="M56.12,95.14a7.38,7.38,0,0,0-2.32-6.39A7.51,7.51,0,0,0,47,87.39,14.5,14.5,0,0,0,36.48,99.57,7.4,7.4,0,0,0,38.8,106a7,7,0,0,0,4.6,1.61,9.32,9.32,0,0,0,2.18-.26A14.46,14.46,0,0,0,56.12,95.14ZM45.61,107a9.26,9.26,0,0,1-2.11.25,6.68,6.68,0,0,1-4.43-1.55,7.17,7.17,0,0,1-2.25-6.17A14,14,0,0,1,47,87.74a7.27,7.27,0,0,1,6.54,1.31,7.14,7.14,0,0,1,2.24,6.17A14,14,0,0,1,45.61,107Z" fill="#fff"/><path d="M50.25,90.67l.14.06h0a.24.24,0,0,0,.06-.09l0,0s0,0,.11-.28l.53-.92c.13-.23.15-.25.2-.25h0a.27.27,0,0,0,.06-.1h0l-.14,0L51.07,89h0A.16.16,0,0,0,51,89l0,0s0,0-.11.28l-.53.92c-.14.23-.15.24-.2.25h0a.16.16,0,0,0,0,.09h0Z" fill="#fff"/><path d="M52.26,92h0s-.07,0-.08.07h0l.09.11a.74.74,0,0,1,.08.13h0a.2.2,0,0,0,.08-.08v0s0-.06.2-.24l.79-.72c.21-.18.22-.19.26-.17h0s.07,0,.08-.07h0a.44.44,0,0,1-.09-.11l-.09-.13h0a.18.18,0,0,0-.09.08v0s0,.07-.2.25l-.8.71C52.31,92,52.29,92,52.26,92Z" fill="#fff"/><path d="M52.86,92.33l.82-.67c.22-.17.23-.17.27-.15l0,0h0a.27.27,0,0,0,.08-.07h0a.83.83,0,0,1-.08-.12l-.07-.14h0s-.07,0-.09.07v0s0,.07-.22.24l-.82.67c-.21.16-.23.17-.27.15l0,0h0a.27.27,0,0,0-.08.07h0a.83.83,0,0,1,.08.12.61.61,0,0,1,.07.14h0s.07,0,.09-.07v0S52.65,92.5,52.86,92.33Z" fill="#fff"/><path d="M54.91,94.86h0a.86.86,0,0,1,0-.17v-.17h0a.21.21,0,0,0-.1,0v0c0,.06,0,.07-.27.15l-.93.3c-.23.08-.25.08-.26,0l0,0h0l-.09,0h0a.81.81,0,0,1,0,.16,1,1,0,0,1,0,.17h0a.19.19,0,0,0,.09,0v0s0-.06.27-.14l.93-.31c.24-.08.25-.07.26,0l0,0h0l.1,0Z" fill="#fff"/><path d="M54.89,95.51h0a.48.48,0,0,1,0-.17s0-.11,0-.18h0s-.08,0-.1,0v0c0,.05,0,.06-.27.13l-.93.23c-.24.06-.25.06-.26,0v0h0a.1.1,0,0,0-.09,0h0a1.09,1.09,0,0,1,0,.18,1,1,0,0,1,0,.17h0l.08,0v0c0-.06,0-.07.28-.13l.92-.24c.24-.06.25-.05.26,0v0h0l.08,0Z" fill="#fff"/><path d="M53.16,96.46l.08,0,0,0c0-.05,0-.06.27-.1l.92-.16c.23,0,.24,0,.25,0v0h0a.17.17,0,0,0,.1,0h0a.88.88,0,0,1,0-.17.57.57,0,0,1,0-.18h0a.11.11,0,0,0-.09,0l0,0c0,.05,0,.06-.27.11l-.92.15c-.24,0-.24,0-.25,0v0h0s-.07,0-.09,0h0c0,.06,0,.12,0,.18s0,.11,0,.18h0Z" fill="#fff"/><path d="M53.8,99.21l0,0s-.05.05-.26,0L52.7,99c-.2-.06-.21-.07-.2-.12v0h0a.11.11,0,0,0-.08,0h0l-.07.18-.09.17h0a.11.11,0,0,0,.08,0l0,0s0-.06.26,0l.81.2c.2,0,.21.06.2.11v0h0l.07,0h0a1,1,0,0,1,.08-.18,1,1,0,0,1,.09-.17h0A.1.1,0,0,0,53.8,99.21Z" fill="#fff"/><path d="M53.57,99.87h0a.11.11,0,0,0-.08,0l0,0s-.06,0-.26,0l-.77-.27c-.2-.06-.2-.07-.19-.13v0h0a.12.12,0,0,0-.09,0h0l-.09.17-.1.17h0a.08.08,0,0,0,.08,0l0,0s.05,0,.25,0l.78.27c.2.07.2.08.19.13v0h0s.05,0,.08,0h0c0-.07.06-.12.09-.18l.1-.17Z" fill="#fff"/><path d="M52.91,100.82s0,0,0,0h0l0,0h0s.06-.12.1-.18l.11-.16h0s0,0,0,0h0l0,0h0l0,0s-.05,0-.24,0l-.74-.34c-.18-.08-.19-.1-.17-.15v0a.08.08,0,0,0-.08,0h0c0,.06-.07.12-.11.17a1.2,1.2,0,0,1-.11.17h0s.06.05.08,0l0,0c.05,0,.06,0,.25,0l.73.33c.19.09.19.1.18.15Zm-1.12-.6Z" fill="#fff"/><path d="M52.74,101.07h0l0,0s-.06,0-.23-.06l-.69-.41c-.18-.1-.18-.11-.16-.16v0s-.05-.05-.07-.05h0l-.11.16-.12.16h0s0,0,.07,0h0l0,0s0,0,.23.06l.69.4c.18.11.18.12.16.17v0s0,0,.07,0h0a1.63,1.63,0,0,1,.11-.17,1.33,1.33,0,0,1,.12-.16h0A.12.12,0,0,0,52.74,101.07Z" fill="#fff"/><path d="M50.16,104l.06,0a.1.1,0,0,0,0-.07h0c-.05,0-.05,0-.18-.14l-.6-.67-.1-.11-.07-.08h0a.05.05,0,0,0,0,0s0,.1,0,.17.06.24.11.41l.1.39c.05.2.08.32.09.39a.12.12,0,0,1,0,.11l0,0,0,.07h0l.09-.07.14-.1s0-.07,0-.08h0s0,0,0,0a.26.26,0,0,0,0-.07v0c0-.09-.1-.31-.13-.44l-.06-.21a1.55,1.55,0,0,0,0-.15l0,0,.08.09.32.37.16.18a0,0,0,0,1,0,0l0,0h0a.1.1,0,0,0,0,.07h0l.16-.13Z" fill="#fff"/><path d="M46.51,106l.05,0h0a.14.14,0,0,0,0-.09h0s0,0-.08-.22l-.18-1a1,1,0,0,0,0-.15s0-.09,0-.12a0,0,0,0,0,0,0s0,0,0,0l0,.19c0,.12,0,.28-.09.49l-.09.45a4.19,4.19,0,0,1-.1.45.23.23,0,0,1-.06.11l0,0s0,.08,0,.09h0l.11,0,.15,0a.17.17,0,0,0,0-.1h0s0,0,0,0a.46.46,0,0,1,0-.1c0-.09.07-.38.1-.55l.05-.24c0-.06,0-.12,0-.16h0a.51.51,0,0,1,0,.13l.1.54a2.42,2.42,0,0,1,0,.26s0,0,0,0l0,0s0,.07,0,.09h0l.17-.06Z" fill="#fff"/><path d="M45.53,106.3h0s0-.08,0-.09h0s0,0,0-.25l.09-.94c0-.24,0-.26.09-.29l0,0a.17.17,0,0,0,0-.1h0l-.18,0-.17,0h0a.12.12,0,0,0,0,.1h0s.05,0,0,.26l-.1.94c0,.24,0,.26-.09.28l0,0a.1.1,0,0,0,0,.09h0l.17-.05.17,0Z" fill="#fff"/><path d="M43,104.62l-.11.17-.29.46-.28.43c-.13.21-.22.34-.28.42a.2.2,0,0,1-.1.07h0s-.05.08,0,.09H42l.12,0h0a.13.13,0,0,0,0-.09l0,0s0,0,0,0l0-.09.32-.52.15-.23.1-.15a1.56,1.56,0,0,0,0,.16l-.17.6c-.05.15-.08.27-.09.29a.07.07,0,0,1,0,0h0a.36.36,0,0,0,0,.09h0l.15,0,.08,0h.06a.13.13,0,0,0,0-.09h0l0,0s0,0,0-.28l.31-1.09s0-.1,0-.16a1.13,1.13,0,0,0,0-.15s0,0,0,0A.06.06,0,0,0,43,104.62Z" fill="#fff"/><path d="M41.84,105.81l.51-.93c.12-.23.14-.24.19-.25h0a.24.24,0,0,0,.05-.1h0l-.15,0-.14-.06h0a.18.18,0,0,0-.06.09l0,0s0,0-.09.28l-.51.92c-.13.24-.14.25-.19.26h0a.2.2,0,0,0-.05.09h0l.15,0,.14.06h0a.16.16,0,0,0,0-.09l0,0S41.71,106.05,41.84,105.81Z" fill="#fff"/><path d="M41.16,106h0a.16.16,0,0,0,0-.09l0,0s0,0,.12-.28l.57-.9c.14-.22.16-.24.21-.24h0a.26.26,0,0,0,0-.09h0l-.15-.05-.13-.07h0a.18.18,0,0,0-.06.09l0,0s0,0-.12.28l-.57.9c-.14.22-.16.24-.21.24h0a.18.18,0,0,0-.06.09h0l.15,0Z" fill="#fff"/><path d="M40.35,102.91s0,0,0,0l-.18.12-.44.3-.41.28a3.52,3.52,0,0,1-.42.26s-.07,0-.1,0h0a.12.12,0,0,0-.07.07h0l.06.06.07.11h0s.07-.05.08-.07v0s0,0,0-.05l.08-.06.5-.34.23-.16.13-.09-.11.14-.44.51a2.63,2.63,0,0,1-.21.24.06.06,0,0,1,0,0h0a.19.19,0,0,0-.08.07h0a.5.5,0,0,1,.1.11.16.16,0,0,1,0,.07l0,0h0a.13.13,0,0,0,.08-.07v0c0-.05,0-.05.18-.26l.78-.93.12-.14.1-.12S40.37,102.92,40.35,102.91Z" fill="#fff"/><path d="M38.57,103.78h0a.31.31,0,0,0,.09-.07v0c0-.05,0-.06.22-.23l.83-.65c.22-.18.23-.17.27-.15h0a.16.16,0,0,0,.08-.06h0l-.08-.13-.07-.13h0a.27.27,0,0,0-.08.07v0s0,.06-.22.23l-.83.65c-.21.17-.23.18-.26.15h0a.18.18,0,0,0-.09.06h0l.09.13Z" fill="#fff"/><path d="M38.63,103l.86-.6c.22-.16.23-.16.27-.13l0,0h0l.09-.06h0l-.07-.14a1.09,1.09,0,0,1,0-.14h0s-.08,0-.09.07v0s0,.07-.23.22l-.86.6c-.22.15-.24.16-.27.13l0,0h0a.18.18,0,0,0-.09.06h0l.07.13a1.16,1.16,0,0,1,.06.15h0a.16.16,0,0,0,.08-.06v0C38.39,103.13,38.41,103.12,38.63,103Z" fill="#fff"/><path d="M38,102.61l0,.15h0a.21.21,0,0,0,.1-.06v0c0-.06,0-.07.24-.21l.88-.54c.23-.14.24-.14.28-.11l0,0h0a.18.18,0,0,0,.09-.06h0a1.16,1.16,0,0,0-.06-.15s0-.1,0-.15h0a.18.18,0,0,0-.09.06v0c0,.05,0,.07-.24.2l-.89.55c-.22.14-.24.14-.27.11l0,0h0a.15.15,0,0,0-.09.06h0A.53.53,0,0,1,38,102.61Z" fill="#fff"/><path d="M39,99.27c.24-.06.25,0,.26,0v0h0s.07,0,.09,0h0c0-.06,0-.12,0-.17a1.41,1.41,0,0,1,0-.18h0a.19.19,0,0,0-.1,0v0c0,.06,0,.07-.28.12l-.92.2c-.23,0-.24,0-.26,0v0h0l-.09,0h0a.91.91,0,0,1,0,.17,1.41,1.41,0,0,1,0,.18h0s.07,0,.08,0l0,0c0-.06,0-.07.27-.12Z" fill="#fff"/><path d="M38.49,98.45l-.07,0a2.88,2.88,0,0,1-.42-.11.07.07,0,0,1,0-.06v0h0a.15.15,0,0,0-.09,0h0a.93.93,0,0,1,0,.14l0,.13h0a.09.09,0,0,0,.1,0l0,0,0,0H38l.28.06h.05l-.34.14-.09,0h0s0,0,0,0v0h0a.17.17,0,0,0-.1,0h0s0,.09,0,.18,0,.14,0,.18h0l.07,0v0c0-.06.06-.08.15-.12l.41-.18.15-.06.08,0h.07l.41.09c.11,0,.17,0,.18.1v0h0s.08,0,.09,0h0a.53.53,0,0,1,0-.12.94.94,0,0,1,0-.16h0s-.07,0-.09,0l0,0s0,0,0,0h-.06l-.43-.07.39-.17.15,0h0s0,0,0,0v0h0s.06,0,.07,0,0-.12,0-.2l0-.18h0a.17.17,0,0,0-.1,0l0,0s0,.08-.19.13l-.64.27-.08,0Z" fill="#fff"/><path d="M40.76,94.87l0,0a.23.23,0,0,1-.19.06h0l-.61,0h-.07s0,0-.06-.05-.21-.23-.27-.31a.08.08,0,0,1,0-.08v0h0a.08.08,0,0,0-.08,0h0a.61.61,0,0,1-.07.14l-.08.13h0s.06,0,.08,0l0,0h0l0,0,.15.14a.6.6,0,0,1,.08.08h-.33l-.08,0s0,0,0,0v0h0s-.06,0-.08,0,0,.08-.1.17a1,1,0,0,1-.11.17h0a.08.08,0,0,0,.08,0h0s.08-.06.17-.06h.61l0,0,.28.28c.07.07.11.12.09.19v0h0a.08.08,0,0,0,.07,0h0a.75.75,0,0,1,.06-.13s.06-.1.1-.15a0,0,0,0,0,0,0s-.05,0-.07,0l0,0,0,0,0,0-.3-.27h.52s0,0,0,0l0,0a0,0,0,0,0,0,0s.06,0,.07,0l.11-.19.1-.18h0S40.79,94.87,40.76,94.87Z" fill="#fff"/><path d="M43.1,92.28l0,0s-.08,0-.18,0L42.42,92l-.05,0a.69.69,0,0,1,0-.08c0-.19-.06-.34-.08-.45a.14.14,0,0,1,0-.09l0,0h0s0-.06-.06-.06h0a1.13,1.13,0,0,1-.11.11l-.11.09h0a.12.12,0,0,0,0,.07h0l0,0s0,0,0,0,0,0,0,.06a2.5,2.5,0,0,1,.07.26l0,.07L42,91.71s-.06,0-.07-.06a.1.1,0,0,0,0,0l0,0h0s0-.06-.06-.06h0a.86.86,0,0,1-.14.14l-.16.13h0s0,.06,0,.07h0s.08,0,.15,0l.28.17.13.09.06,0a.39.39,0,0,0,0,.06c0,.14.08.32.1.42s0,.18,0,.24l0,0a.08.08,0,0,0,0,0s0,0,0,0h0l.1-.09.14-.12s0,0,0,0l0,0h0l0,0s0,0,0,0l0,0a4.26,4.26,0,0,1-.12-.43l.28.19.1.07s0,0,0,.05l0,0s0,0,0,.05l0,0h0l.16-.15.16-.14h0a.08.08,0,0,0,0-.07Zm-.69.65,0,0h0S42.42,92.94,42.41,92.93Z" fill="#fff"/><path d="M43.56,92.05h0a.12.12,0,0,0,0-.08h0s-.06,0-.16-.16l-.38-.72c-.1-.18-.1-.19-.06-.24l0,0s0-.07,0-.07h0a1.31,1.31,0,0,1-.15.12l-.16.12h0s0,.07,0,.08h0c.05,0,.06,0,.15.16l.39.72c.1.18.1.19.06.24l0,0s0,.07,0,.07h0l.16-.12.16-.12Z" fill="#fff"/><path d="M45.72,89.27h.05a0,0,0,0,0,0,0s.06,0,.08.07h0l0,0,.11.31.06.17a.41.41,0,0,1,0,.07s0,0,0,.08-.1.37-.13.48-.06.2-.12.25l0,0a.14.14,0,0,0,0,.09h0l.12,0,.16-.05s0-.08,0-.09h0s0,0,0,0a.26.26,0,0,1,0-.07c0-.14.07-.32.12-.49,0,.07.1.28.11.33a.83.83,0,0,1,0,.14s0,0,0,0l0,0s0,.08,0,.09h0l.19-.07.18-.05h0a.12.12,0,0,0,0-.1h0s-.06,0-.1-.13-.11-.29-.2-.55c0,0,0-.06,0-.07a.47.47,0,0,1,0-.09,3.73,3.73,0,0,1,.16-.5.14.14,0,0,1,.06-.08l0,0h0s0-.08,0-.09h0l-.13,0-.13,0h0a.17.17,0,0,0,0,.1h0l0,0a.32.32,0,0,1,0,.07,2.68,2.68,0,0,1-.07.27l0,.12c0-.09-.07-.19-.1-.29h0a.45.45,0,0,1,0-.08l0,0,0,0a.12.12,0,0,0,0-.1h0l-.18.07-.17,0h0a.17.17,0,0,0,0,.1Z" fill="#fff"/><path d="M45.77,89.28l0,0A.08.08,0,0,0,45.77,89.28Z" fill="#fff"/><path d="M46.62,90.57h0l.17,0,.17,0h0a.17.17,0,0,0,0-.1h0s-.05,0,0-.25l.07-.94c0-.23,0-.25.08-.28l0,0a.17.17,0,0,0,0-.1h0l-.17,0-.18,0h0a.17.17,0,0,0,0,.1h0s0,0,0,.25l-.07.94c0,.23,0,.25-.08.28l0,0a.18.18,0,0,0,0,.1Z" fill="#fff"/><path d="M47.13,90.45h0l.17,0,.17,0h0a.18.18,0,0,0,0-.1h0s0,0,0-.27l.13-1c0-.24,0-.25.1-.28l0,0a.17.17,0,0,0,0-.1h0l-.17,0-.17,0h0a.12.12,0,0,0,0,.1h0s0,0,0,.27l-.14,1c0,.23,0,.25-.1.28l0,0A.36.36,0,0,0,47.13,90.45Z" fill="#fff"/><path d="M45.3,88.89a.13.13,0,0,0-.21-.09.24.24,0,0,0-.16.26c0,.09.1.13.21.09A.28.28,0,0,0,45.3,88.89Z" fill="#fff"/><path d="M47.44,105.75a.27.27,0,0,0-.16.26c0,.1.1.14.21.09a.27.27,0,0,0,.16-.25A.14.14,0,0,0,47.44,105.75Z" fill="#fff"/><path d="M44.14,89.26a.28.28,0,0,0-.14.27.15.15,0,0,0,.23.07.28.28,0,0,0,.14-.27A.15.15,0,0,0,44.14,89.26Z" fill="#fff"/><path d="M48.35,105.3a.25.25,0,0,0-.14.27c0,.09.12.12.22.07a.28.28,0,0,0,.14-.27C48.55,105.28,48.45,105.25,48.35,105.3Z" fill="#fff"/><path d="M43.34,90.13a.26.26,0,0,0,.12-.27c0-.09-.14-.11-.24,0a.23.23,0,0,0-.11.27C43.14,90.18,43.25,90.19,43.34,90.13Z" fill="#fff"/><path d="M49.23,104.77a.24.24,0,0,0-.11.27c0,.09.14.11.23,0a.25.25,0,0,0,.12-.27C49.43,104.72,49.33,104.71,49.23,104.77Z" fill="#fff"/><path d="M42.49,90.74a.22.22,0,0,0,.09-.27c0-.08-.16-.09-.25,0a.24.24,0,0,0-.09.27C42.29,90.81,42.4,90.81,42.49,90.74Z" fill="#fff"/><path d="M50.08,104.16a.24.24,0,0,0-.09.27.16.16,0,0,0,.25,0,.21.21,0,0,0,.09-.27C50.29,104.09,50.18,104.09,50.08,104.16Z" fill="#fff"/><path d="M41.68,91.43a.21.21,0,0,0,.06-.28.17.17,0,0,0-.25,0,.23.23,0,0,0-.07.28C41.48,91.52,41.59,91.51,41.68,91.43Z" fill="#fff"/><path d="M50.89,103.47a.23.23,0,0,0-.06.28c.05.07.17.06.26,0a.23.23,0,0,0,.06-.28C51.1,103.38,51,103.39,50.89,103.47Z" fill="#fff"/><path d="M40.92,92.18c.08-.09.1-.21,0-.27a.2.2,0,0,0-.27,0,.2.2,0,0,0,0,.27A.19.19,0,0,0,40.92,92.18Z" fill="#fff"/><path d="M51.65,102.72a.2.2,0,0,0,0,.27.19.19,0,0,0,.26,0,.21.21,0,0,0,0-.27A.2.2,0,0,0,51.65,102.72Z" fill="#fff"/><path d="M40.22,93c.07-.09.08-.21,0-.26s-.19,0-.27.07a.2.2,0,0,0,0,.27A.22.22,0,0,0,40.22,93Z" fill="#fff"/><path d="M52.35,101.91a.19.19,0,0,0,0,.26c.07.06.19,0,.26-.07a.18.18,0,0,0,0-.26C52.55,101.78,52.43,101.82,52.35,101.91Z" fill="#fff"/><path d="M39.58,93.85a.18.18,0,0,0,0-.26c-.07,0-.19,0-.26.11a.16.16,0,0,0,0,.25A.21.21,0,0,0,39.58,93.85Z" fill="#fff"/><path d="M53,101.05a.18.18,0,0,0,0,.26.22.22,0,0,0,.26-.11.16.16,0,0,0,0-.25A.22.22,0,0,0,53,101.05Z" fill="#fff"/><path d="M39,94.75A.17.17,0,0,0,39,94.5a.25.25,0,0,0-.26.13c-.05.11,0,.21,0,.25A.24.24,0,0,0,39,94.75Z" fill="#fff"/><path d="M53.55,100.15c-.06.11,0,.21.05.25a.25.25,0,0,0,.26-.13c.06-.11,0-.21,0-.25A.25.25,0,0,0,53.55,100.15Z" fill="#fff"/><path d="M38.54,95.68c.05-.11,0-.21-.07-.23a.26.26,0,0,0-.26.15c-.05.11,0,.21.08.23A.25.25,0,0,0,38.54,95.68Z" fill="#fff"/><path d="M54,99.22c-.05.11,0,.21.08.23a.24.24,0,0,0,.25-.15c0-.11,0-.21-.07-.23A.26.26,0,0,0,54,99.22Z" fill="#fff"/><path d="M38.14,96.62c0-.1,0-.2-.1-.21a.26.26,0,0,0-.24.18c0,.1,0,.2.1.21A.26.26,0,0,0,38.14,96.62Z" fill="#fff"/><path d="M54.43,98.28a.14.14,0,0,0,.1.21.26.26,0,0,0,.25-.18.14.14,0,0,0-.11-.21A.26.26,0,0,0,54.43,98.28Z" fill="#fff"/><path d="M37.6,97.78a.29.29,0,0,0,.24-.2.14.14,0,0,0-.13-.19.26.26,0,0,0-.23.2C37.45,97.69,37.5,97.78,37.6,97.78Z" fill="#fff"/><path d="M55,97.12a.28.28,0,0,0-.23.2c0,.11,0,.19.12.19a.28.28,0,0,0,.24-.19A.14.14,0,0,0,55,97.12Z" fill="#fff"/><path d="M37.4,98.75a.28.28,0,0,0,.22-.22.14.14,0,0,0-.15-.17.29.29,0,0,0-.22.22A.13.13,0,0,0,37.4,98.75Z" fill="#fff"/><path d="M55.17,96.15a.28.28,0,0,0-.22.22.14.14,0,0,0,.15.17.29.29,0,0,0,.22-.22A.13.13,0,0,0,55.17,96.15Z" fill="#fff"/><path d="M37.3,99.71a.28.28,0,0,0,.2-.23.13.13,0,0,0-.17-.15.29.29,0,0,0-.2.23A.13.13,0,0,0,37.3,99.71Z" fill="#fff"/><path d="M55.27,95.19a.28.28,0,0,0-.2.23.14.14,0,0,0,.18.15.28.28,0,0,0,.2-.23A.14.14,0,0,0,55.27,95.19Z" fill="#fff"/><path d="M37.48,100.4a.14.14,0,0,0-.2-.12.27.27,0,0,0-.18.24.13.13,0,0,0,.19.13A.29.29,0,0,0,37.48,100.4Z" fill="#fff"/><path d="M55.28,94.26a.26.26,0,0,0-.18.24.13.13,0,0,0,.19.12.27.27,0,0,0,.18-.24A.13.13,0,0,0,55.28,94.26Z" fill="#fff"/><path d="M37.55,101.29c0-.1-.11-.14-.21-.1a.27.27,0,0,0-.16.26c0,.1.11.14.21.1A.29.29,0,0,0,37.55,101.29Z" fill="#fff"/><path d="M55,93.61c0,.1.1.14.21.1a.28.28,0,0,0,.16-.26.13.13,0,0,0-.21-.09A.24.24,0,0,0,55,93.61Z" fill="#fff"/><path d="M37.49,102.07a.26.26,0,0,0-.14.26.15.15,0,0,0,.23.07.26.26,0,0,0,.14-.27A.15.15,0,0,0,37.49,102.07Z" fill="#fff"/><path d="M55.08,92.83a.26.26,0,0,0,.14-.26c0-.09-.12-.12-.22-.07a.24.24,0,0,0-.14.27C54.88,92.86,55,92.89,55.08,92.83Z" fill="#fff"/><path d="M37.74,102.89a.23.23,0,0,0-.11.27c0,.09.14.11.24,0a.25.25,0,0,0,.11-.27C37.94,102.84,37.84,102.83,37.74,102.89Z" fill="#fff"/><path d="M54.83,92a.25.25,0,0,0,.12-.27c0-.09-.14-.1-.24,0a.25.25,0,0,0-.12.27A.16.16,0,0,0,54.83,92Z" fill="#fff"/><path d="M38.08,103.65a.25.25,0,0,0-.09.28c0,.08.16.08.25,0a.22.22,0,0,0,.09-.28C38.29,103.59,38.18,103.58,38.08,103.65Z" fill="#fff"/><path d="M54.49,91.25a.25.25,0,0,0,.09-.28c0-.08-.16-.08-.25,0a.25.25,0,0,0-.09.28A.17.17,0,0,0,54.49,91.25Z" fill="#fff"/><path d="M38.51,104.35a.23.23,0,0,0-.06.27.18.18,0,0,0,.26,0c.09-.09.12-.21.06-.28S38.6,104.27,38.51,104.35Z" fill="#fff"/><path d="M54.06,90.55a.21.21,0,0,0,.06-.27.18.18,0,0,0-.26,0,.24.24,0,0,0-.06.28C53.86,90.64,54,90.63,54.06,90.55Z" fill="#fff"/><path d="M39,105a.2.2,0,0,0,0,.27.19.19,0,0,0,.26,0,.19.19,0,0,0,0-.27A.19.19,0,0,0,39,105Z" fill="#fff"/><path d="M53.54,89.93c.08-.09.1-.21,0-.27s-.18,0-.27,0a.2.2,0,0,0,0,.27A.19.19,0,0,0,53.54,89.93Z" fill="#fff"/><path d="M39.63,105.51a.18.18,0,0,0,0,.26.22.22,0,0,0,.27-.07c.07-.1.08-.21,0-.27A.2.2,0,0,0,39.63,105.51Z" fill="#fff"/><path d="M52.94,89.39a.18.18,0,0,0,0-.26.2.2,0,0,0-.26.07.19.19,0,0,0,0,.27A.2.2,0,0,0,52.94,89.39Z" fill="#fff"/><path d="M40.3,106c-.07.1-.06.21,0,.25a.21.21,0,0,0,.26-.1c.07-.1.06-.21,0-.25S40.37,105.86,40.3,106Z" fill="#fff"/><path d="M52.27,88.94c.07-.1.06-.21,0-.25a.22.22,0,0,0-.26.1c-.07.1-.06.21,0,.25A.2.2,0,0,0,52.27,88.94Z" fill="#fff"/><path d="M41,106.31c-.06.11,0,.22,0,.25a.23.23,0,0,0,.26-.13c.06-.1,0-.21,0-.24A.22.22,0,0,0,41,106.31Z" fill="#fff"/><path d="M51.54,88.59c.06-.11,0-.22,0-.25a.25.25,0,0,0-.26.13c-.06.1,0,.21.05.24A.23.23,0,0,0,51.54,88.59Z" fill="#fff"/><path d="M41.83,106.57c0,.11,0,.21.07.23a.26.26,0,0,0,.26-.15c.05-.11,0-.21-.08-.23A.25.25,0,0,0,41.83,106.57Z" fill="#fff"/><path d="M50.75,88.33c0-.11,0-.21-.08-.23a.25.25,0,0,0-.25.15c-.05.11,0,.21.07.23A.26.26,0,0,0,50.75,88.33Z" fill="#fff"/><path d="M42.67,106.73c0,.11,0,.2.1.21a.27.27,0,0,0,.25-.17c0-.11,0-.2-.11-.21A.26.26,0,0,0,42.67,106.73Z" fill="#fff"/><path d="M49.9,88.17c0-.11,0-.2-.1-.21a.26.26,0,0,0-.24.17c0,.11,0,.2.1.21A.26.26,0,0,0,49.9,88.17Z" fill="#fff"/><path d="M43.78,106.59a.29.29,0,0,0-.23.2.14.14,0,0,0,.13.19.27.27,0,0,0,.23-.19A.14.14,0,0,0,43.78,106.59Z" fill="#fff"/><path d="M48.79,88.31a.26.26,0,0,0,.23-.2c0-.11,0-.19-.12-.19a.28.28,0,0,0-.24.2A.14.14,0,0,0,48.79,88.31Z" fill="#fff"/><path d="M44.68,106.53a.28.28,0,0,0-.22.22.14.14,0,0,0,.15.17.29.29,0,0,0,.22-.22A.13.13,0,0,0,44.68,106.53Z" fill="#fff"/><path d="M47.89,88.37a.28.28,0,0,0,.22-.22A.14.14,0,0,0,48,88a.29.29,0,0,0-.22.22A.13.13,0,0,0,47.89,88.37Z" fill="#fff"/><path d="M45.6,106.37a.27.27,0,0,0-.21.23.14.14,0,0,0,.18.15.29.29,0,0,0,.2-.24A.13.13,0,0,0,45.6,106.37Z" fill="#fff"/><path d="M47,88.53a.27.27,0,0,0,.2-.23.14.14,0,0,0-.17-.15.27.27,0,0,0-.2.24A.12.12,0,0,0,47,88.53Z" fill="#fff"/><path d="M46.52,106.11a.26.26,0,0,0-.18.24.13.13,0,0,0,.19.12.27.27,0,0,0,.18-.24A.13.13,0,0,0,46.52,106.11Z" fill="#fff"/><path d="M46.06,88.79a.27.27,0,0,0,.18-.24.13.13,0,0,0-.19-.12.26.26,0,0,0-.19.24A.14.14,0,0,0,46.06,88.79Z" fill="#fff"/><path d="M50.28,102.06A.28.28,0,0,0,50,102l-1.18-1.93,0,0a.15.15,0,0,0,0-.2l0,0s-.12,0-.18,0l0,0-1.41-2.25a3.52,3.52,0,0,0-.56-.72,1.13,1.13,0,0,0,.17-.45,3.21,3.21,0,0,0,.57-.54l1.48-2,.43-.49.09.06a.16.16,0,0,0,.2,0l0,0a.12.12,0,0,0,0-.18l-.1-.07.29-.33a.74.74,0,0,0,.6-.23.47.47,0,0,0,.11-.58l.78-.89c.05-.07,0-.11-.08,0l-.88.81a.7.7,0,0,0-.68.19.51.51,0,0,0-.14.56l-.33.3-.09-.07a.17.17,0,0,0-.21,0l0,0a.12.12,0,0,0,0,.18l.09.05-.5.46-2,1.63a2.31,2.31,0,0,0-.34.36H46a1.37,1.37,0,0,0-1,1.15.75.75,0,0,0,.12.46.54.54,0,0,0,.71.54A.64.64,0,0,0,46,97.7a4.74,4.74,0,0,0,.49.64l1.57,2,0,0c-.06.06-.09.15-.05.2l0,0a.12.12,0,0,0,.18,0l.07,0,1.41,1.68a.4.4,0,0,0,0,.43c.09.13.26.13.43,0l.56.66c.06.07.15,0,.1-.09l-.46-.76A.38.38,0,0,0,50.28,102.06Z" fill="#fff"/><path d="M111.09,69.18c.26,0,.45-.23.56-.69a2.7,2.7,0,0,1,.95-1.42,13.88,13.88,0,0,0,7.39,2.3,9.59,9.59,0,0,0,6.89-2.68,8.21,8.21,0,0,0,2.82-6.08,6.82,6.82,0,0,0-1.12-3.74,8.3,8.3,0,0,0-2.76-2.71,25.5,25.5,0,0,0-4.95-2,21.11,21.11,0,0,1-5.93-2.58,3.93,3.93,0,0,1-1.44-3.28A5.07,5.07,0,0,1,114.82,43a4.83,4.83,0,0,1,3.92-1.57,7.46,7.46,0,0,1,4.88,1.85A11.65,11.65,0,0,1,127,47.93c.13.29.28.43.45.43.32,0,.47-.13.47-.39l-.51-4c-.19-1.56-.33-2.6-.43-3.11a.61.61,0,0,0-.39-.22c-.21,0-.38.18-.49.52a3,3,0,0,1-.78,1.2A16.56,16.56,0,0,0,122.06,41a10.73,10.73,0,0,0-3-.45,9.39,9.39,0,0,0-6.34,2.21,6.52,6.52,0,0,0-2.59,5.07,6.67,6.67,0,0,0,.68,2.85A7.42,7.42,0,0,0,113,53.27a19.05,19.05,0,0,0,5.56,2.48,26.53,26.53,0,0,1,4.65,1.83,6.68,6.68,0,0,1,2.36,2.14,5.13,5.13,0,0,1,.89,2.93,5.77,5.77,0,0,1-1.66,4.07,6,6,0,0,1-4.61,1.77q-5.93,0-9.24-8.31-.19-.48-.51-.48c-.25,0-.4.09-.46.26q.48,7.46.63,8.34C110.7,68.88,110.86,69.18,111.09,69.18Z" fill="#fff"/><path d="M133.65,69.13a2.55,2.55,0,0,0,.39,0,34.23,34.23,0,0,1,4.88-.19c2.43,0,4,0,4.81.13a2.72,2.72,0,0,0,.43,0c.31,0,.47-.13.47-.39s-.24-.37-.73-.47a4,4,0,0,1-1.86-.82,2.25,2.25,0,0,1-.8-1.28,28.2,28.2,0,0,1-.13-3.67c0-1.77,0-4,.17-6.77,1.49-.2,5-.31,10.53-.31,1.27,0,2.53,0,3.76.13l-.11,7.8a12.07,12.07,0,0,1-.37,3.27,2.41,2.41,0,0,1-.84,1.31,5.36,5.36,0,0,1-2.25.45c-.36,0-.54.13-.54.34s.25.39.76.39l4.32-.15,6.63.17c.39,0,.58-.11.58-.34s-.23-.35-.69-.41a6.32,6.32,0,0,1-1.92-.53,3.15,3.15,0,0,1-1.41-1.16,7,7,0,0,1-.47-3.21l.07-5.28q0-2.43.18-7.79a46.47,46.47,0,0,1,.47-6.5,2.35,2.35,0,0,1,1.19-1.61,5.52,5.52,0,0,1,2.54-.48c.27,0,.41-.11.41-.34s-.21-.39-.63-.39l-5.31.11L151.91,41c-.43,0-.64.13-.64.41s.36.45,1.07.45A2.89,2.89,0,0,1,155,43c.52.83.78,2.55.78,5.17l-.19,6c-3.55.12-6.6.17-9.14.17-2,0-3.69-.05-5.15-.17,0-2.67-.07-4.22-.07-4.67,0-4.27.16-6.6.47-7s1.17-.63,2.59-.78c.37,0,.55-.17.55-.39s-.06-.31-.18-.35a6.9,6.9,0,0,0-1.1-.05l-8.66.13c-.62,0-.93.14-.93.44s.15.32.45.35a2.57,2.57,0,0,1,2.52,1.59c.34,1,.51,3.27.51,7q0,6.78-.27,11.52c-.17,3.16-.5,5-1,5.47a3.92,3.92,0,0,1-2.37.92c-.44.06-.66.21-.66.46S133.32,69.13,133.65,69.13Z" fill="#fff"/><path d="M170.51,68.91c1.93,0,4.14.06,6.64.17s4.39.16,5.68.16l9,0c.48-1.86.75-3,.82-3.35.33-1.76.54-2.78.62-3a1.73,1.73,0,0,0,.11-.56c0-.31-.11-.47-.34-.47s-.42.24-.62.71Q190,68.3,181.63,68.3a8.71,8.71,0,0,1-4.15-.72,3.16,3.16,0,0,1-1.55-2,30.67,30.67,0,0,1-.32-5.76c0-2.33,0-4,.07-5.07,3.22,0,5.31.38,6.27,1.12a5.68,5.68,0,0,1,1.9,3.65c.07.35.2.52.39.52s.4-.24.4-.73c-.08-1.57-.11-3.32-.11-5.28a33.55,33.55,0,0,1,.17-3.51l.09-.86c0-.41-.14-.62-.41-.62s-.33.15-.43.45A6.66,6.66,0,0,1,181.84,53a7.29,7.29,0,0,1-3.93.81c-.4,0-1.14,0-2.23-.07,0-.38-.05-.68-.05-.9q0-7.59.22-9.3a5.13,5.13,0,0,0,0-.54,1.33,1.33,0,0,1,.17-.79,26,26,0,0,1,5-.37,14.57,14.57,0,0,1,4.7.53,8.77,8.77,0,0,1,2.72,1.77,17.69,17.69,0,0,1,2.84,3.63.44.44,0,0,0,.31.17c.09,0,.16,0,.23-.17a64.83,64.83,0,0,0-1.22-6.75q-.13,0-6.1,0-9.09,0-11.41-.1l-4.38-.24c-.51,0-.76.13-.76.39s.19.37.56.47a6.57,6.57,0,0,1,2.42,1,2,2,0,0,1,.67,1c.07.33.16,1.65.25,4s.14,3.88.14,4.71l-.06,4.13,0,4.4q0,4.89-.75,6.16c-.5.84-1.55,1.26-3.14,1.26-.47,0-.71.15-.71.43a.33.33,0,0,0,.13.24A18.18,18.18,0,0,0,170.51,68.91Z" fill="#fff"/><path d="M200.57,67a3.58,3.58,0,0,1-2,1c-.55.11-.82.28-.82.51a.29.29,0,0,0,.16.29,19.82,19.82,0,0,0,2.66.08l5.91,0c1.31,0,2.07,0,2.27,0a.33.33,0,0,0,.3-.36c0-.26-.33-.41-1-.45a3,3,0,0,1-1.65-.6,2.67,2.67,0,0,1-1-1.16,12.84,12.84,0,0,1-.3-3c-.05-1.61-.07-2.66-.07-3.15,0-.64,0-1.28.06-1.91.09-1.29.13-2.26.13-2.9,1.3.09,2.45.13,3.44.13q6.12,0,9.17-1.89a6.19,6.19,0,0,0,3.05-5.64,6.77,6.77,0,0,0-2.33-5.26c-1.55-1.4-4.58-2.1-9.07-2.1l-6.84,0-4.25,0c-.43,0-.65.12-.65.37s.48.45,1.42.62a2.24,2.24,0,0,1,1.76,1.15,11.57,11.57,0,0,1,.46,4.2l-.07,6.18.07,5.73c0,2-.05,3.72-.13,5.23A5.63,5.63,0,0,1,200.57,67Zm4.65-24.11c0-.13,0-.45,0-1a14.33,14.33,0,0,1,3.87-.47q4.27,0,5.92,1.69a5.67,5.67,0,0,1,1.64,4.1,9.27,9.27,0,0,1-.89,3.86A5,5,0,0,1,213,53.82a11.29,11.29,0,0,1-4.12.75l-3.59-.11c0-.66,0-1.11,0-1.37l.09-5.26Z" fill="#fff"/><path d="M225.22,69.13a2.55,2.55,0,0,0,.39,0,34.23,34.23,0,0,1,4.88-.19c2.43,0,4,0,4.81.13a2.82,2.82,0,0,0,.43,0c.31,0,.47-.13.47-.39s-.24-.37-.73-.47a4,4,0,0,1-1.86-.82,2.25,2.25,0,0,1-.8-1.28,28.2,28.2,0,0,1-.13-3.67q0-2.66.17-6.77c1.49-.2,5-.31,10.53-.31,1.28,0,2.53,0,3.76.13l-.11,7.8a12.07,12.07,0,0,1-.37,3.27,2.41,2.41,0,0,1-.84,1.31,5.36,5.36,0,0,1-2.25.45c-.36,0-.54.13-.54.34s.26.39.76.39l4.32-.15,6.63.17c.39,0,.58-.11.58-.34s-.23-.35-.68-.41a6.38,6.38,0,0,1-1.93-.53,3.06,3.06,0,0,1-1.4-1.16,6.83,6.83,0,0,1-.48-3.21l.07-5.28q0-2.43.18-7.79a46.47,46.47,0,0,1,.47-6.5,2.36,2.36,0,0,1,1.2-1.61,5.44,5.44,0,0,1,2.53-.48c.27,0,.41-.11.41-.34s-.21-.39-.63-.39l-5.31.11L243.49,41c-.43,0-.65.13-.65.41s.36.45,1.07.45A2.89,2.89,0,0,1,246.55,43c.52.83.78,2.55.78,5.17l-.19,6c-3.55.12-6.6.17-9.14.17-2,0-3.69-.05-5.15-.17,0-2.67-.06-4.22-.06-4.67,0-4.27.15-6.6.46-7s1.17-.63,2.59-.78c.37,0,.56-.17.56-.39s-.07-.31-.19-.35a6.9,6.9,0,0,0-1.1-.05l-8.66.13c-.62,0-.93.14-.93.44s.15.32.46.35a2.56,2.56,0,0,1,2.51,1.59c.34,1,.51,3.27.51,7q0,6.78-.26,11.52t-1,5.47a3.89,3.89,0,0,1-2.36.92c-.45.06-.67.21-.67.46S224.89,69.13,225.22,69.13Z" fill="#fff"/><path d="M262.08,68.91c1.93,0,4.14.06,6.64.17s4.39.16,5.68.16l9,0c.47-1.86.74-3,.81-3.35.33-1.76.54-2.78.63-3a1.7,1.7,0,0,0,.1-.56c0-.31-.11-.47-.34-.47s-.42.24-.61.71q-2.43,5.76-10.8,5.76a8.71,8.71,0,0,1-4.15-.72,3.14,3.14,0,0,1-1.54-2,29.46,29.46,0,0,1-.33-5.76c0-2.33,0-4,.07-5.07,3.22,0,5.31.38,6.27,1.12a5.63,5.63,0,0,1,1.9,3.65c.07.35.2.52.39.52s.4-.24.4-.73c-.07-1.57-.11-3.32-.11-5.28,0-1.2.06-2.37.17-3.51l.09-.86c0-.41-.14-.62-.41-.62s-.32.15-.42.45A6.73,6.73,0,0,1,273.41,53a7.28,7.28,0,0,1-3.92.81c-.41,0-1.15,0-2.24-.07,0-.38,0-.68,0-.9q0-7.59.21-9.3a5.13,5.13,0,0,0,0-.54,1.25,1.25,0,0,1,.18-.79,25.82,25.82,0,0,1,5-.37,14.57,14.57,0,0,1,4.7.53A8.66,8.66,0,0,1,280,44.17a17.69,17.69,0,0,1,2.84,3.63.44.44,0,0,0,.32.17.28.28,0,0,0,.23-.17,64.38,64.38,0,0,0-1.23-6.75c-.08,0-2.12,0-6.1,0q-9.09,0-11.41-.1l-4.38-.24q-.75,0-.75.39c0,.21.18.37.55.47a6.49,6.49,0,0,1,2.42,1,1.92,1.92,0,0,1,.67,1c.08.33.16,1.65.26,4s.14,3.88.14,4.71l-.07,4.13,0,4.4q0,4.89-.75,6.16c-.5.84-1.55,1.26-3.14,1.26-.47,0-.71.15-.71.43a.33.33,0,0,0,.13.24A18.28,18.28,0,0,0,262.08,68.91Z" fill="#fff"/><path d="M289.66,68.92h10.63c.63,0,.95-.14.95-.42s-.26-.36-.78-.38A3,3,0,0,1,297,65c-.1-1.08-.16-3.45-.16-7.13,0-1,0-1.91.11-2.81a15.41,15.41,0,0,1,2.54-.24,7.73,7.73,0,0,1,4.33,1,5.52,5.52,0,0,1,2,2.75,34.23,34.23,0,0,1,1.21,5.68c.42,2.67,1.05,4.13,1.9,4.4a37.38,37.38,0,0,0,7.3.39c.44,0,.66-.12.66-.37s-.19-.39-.58-.42A4.76,4.76,0,0,1,313,66.77q-1.28-1.33-2-5.2a9.75,9.75,0,0,0-1.72-4.35,11.32,11.32,0,0,0-4.16-2.71A25.72,25.72,0,0,0,309.32,53a6.1,6.1,0,0,0,2.26-2.21,6.36,6.36,0,0,0-1.41-8.31c-1.59-1.35-4.13-2-7.64-2l-12.72.28c-.6,0-.9.11-.9.34s.15.33.45.37a5.28,5.28,0,0,1,2.68.89,3.9,3.9,0,0,1,.81,2.22,63.51,63.51,0,0,1,.22,6.76l0,6.68.05,4.38a13.17,13.17,0,0,1-.37,3.77,3.25,3.25,0,0,1-1,1.53,3.83,3.83,0,0,1-2.27.49c-.48,0-.73.13-.73.38S289,68.92,289.66,68.92Zm7.41-27.2a20.32,20.32,0,0,1,4.28-.52c2.36,0,4.08.61,5.15,1.81a6.11,6.11,0,0,1,1.61,4.23,5.87,5.87,0,0,1-1.45,4,6.62,6.62,0,0,1-3.51,2.17A31.71,31.71,0,0,1,297,54c-.1-1.09-.15-2-.15-2.84Q296.81,47.63,297.07,41.72Z" fill="#fff"/><path d="M319.07,69.09c.83-.1,3.6-.15,8.29-.15.26,0,1.45.09,3.57.26,1.19.08,2.17.13,2.94.13a17.44,17.44,0,0,0,8.25-1.66,13.67,13.67,0,0,0,5.16-4.91,13.94,13.94,0,0,0,2.06-7.65,13.63,13.63,0,0,0-4.29-10.3q-4.31-4.08-12.7-4.08l-4.43.09c-1.74,0-3.35-.06-4.82-.18s-2.34-.19-2.63-.19a.4.4,0,0,0-.45.45c0,.25.3.41.9.5a3.5,3.5,0,0,1,1.82.72,4.33,4.33,0,0,1,.83,2.36,26.33,26.33,0,0,1,.27,3.82l-.34,11.37c-.12,4-.41,6.34-.87,7.1a3.16,3.16,0,0,1-2.42,1.38,12.29,12.29,0,0,0-1.59.25.33.33,0,0,0-.26.33C318.36,69,318.6,69.09,319.07,69.09Zm8.23-12.27.19-5.9c.05-1.18.14-2.81.28-4.9.1-1.43.15-2.43.15-3s.17-1,.49-1.14a15.33,15.33,0,0,1,3.4-.19c4.38,0,7.62,1.38,9.69,4.15a15,15,0,0,1,3.12,9.26,15.93,15.93,0,0,1-1.37,6.53,12.36,12.36,0,0,1-3.79,4.92,10.2,10.2,0,0,1-6.34,1.84,7.65,7.65,0,0,1-4-.78,3.62,3.62,0,0,1-1.61-2,15.25,15.25,0,0,1-.38-4.05C327.17,61.17,327.21,59.59,327.3,56.82Z" fill="#fff"/><path d="M134.9,78.19c0-.24-.16-.35-.48-.35h-7c-.58,0-.87.11-.87.35s.22.37.66.37a2.75,2.75,0,0,1,2.45,1.24q.82,1.24.83,5.25a62.7,62.7,0,0,1-.49,10.1,5.5,5.5,0,0,1-2.11,3.51,7.92,7.92,0,0,1-4.72,1.18,7.67,7.67,0,0,1-4.68-1.27,5.1,5.1,0,0,1-2-3.45,61.05,61.05,0,0,1-.33-7.8,37.77,37.77,0,0,1,.31-6.12,3.89,3.89,0,0,1,.91-2,3.12,3.12,0,0,1,1.85-.69c.38,0,.57-.16.57-.37s-.26-.31-.76-.31H110.1c-.49,0-.74.12-.74.36s.2.29.6.29A2.33,2.33,0,0,1,112.35,80q.56,1.45.56,8l-.07,4.89a11.7,11.7,0,0,0,.76,4.82,5.67,5.67,0,0,0,2.93,2.6,14.68,14.68,0,0,0,10.28.1,7,7,0,0,0,3.08-2.29,9,9,0,0,0,1.33-4.31,66.61,66.61,0,0,0,.31-7,48.16,48.16,0,0,1,.19-5,4.22,4.22,0,0,1,.82-2.37,3.37,3.37,0,0,1,2-.84Q134.9,78.43,134.9,78.19Z" fill="#fff"/><path d="M144,83.16c.16,0,.34.18.54.53a30,30,0,0,0,3,3.49q.69.75,3.31,3.93,1.2,1.48,3.29,3.87t3.52,4.08a18.92,18.92,0,0,0,1.58,1.78.69.69,0,0,0,.25.08c.23,0,.34-.24.34-.71L160,90.9q0-7.89.15-9.27a3.27,3.27,0,0,1,.93-2.11,4.45,4.45,0,0,1,2.57-.93c.32,0,.47-.14.47-.32S164,78,163.59,78h-.39l-2.38,0c-1,0-2.26,0-3.74.08a16.44,16.44,0,0,0-2.37.16.27.27,0,0,0-.15.26c0,.19.23.3.7.3a3.7,3.7,0,0,1,2.53.88A3.32,3.32,0,0,1,159,81.79c.1.87.16,2.58.16,5.13q0,5.1-.18,8.29l-5.43-6.28-5.65-6.54q-2.61-3-3.66-4.43l-5.19,0c-.52,0-.77.11-.77.34s.2.27.6.32a3.58,3.58,0,0,1,2.39,1.57,8.63,8.63,0,0,1,1.34,2.38,36.42,36.42,0,0,1,.3,6.47l.15,6.19c0,2.08-.25,3.44-.73,4.08s-1.44,1-2.89,1c-.39,0-.58.12-.58.35s.2.3.6.3l8.48,0c.43,0,.65-.1.65-.32s-.39-.42-1.16-.42a2.71,2.71,0,0,1-1.63-.55,3.67,3.67,0,0,1-1.08-1.08,14.18,14.18,0,0,1-.59-3.64q-.28-3.11-.28-8.31l0-2.73C143.78,83.39,143.85,83.16,144,83.16Z" fill="#fff"/><path d="M177.94,101c.27,0,.41-.1.41-.31s-.15-.3-.44-.34a3.53,3.53,0,0,1-1.84-.6,2.09,2.09,0,0,1-.67-1.09,30.69,30.69,0,0,1-.32-4.09q-.14-3.42-.14-6.16,0-7.44.49-8.6c.32-.78,1.13-1.25,2.44-1.41.32,0,.48-.16.48-.34s-.3-.35-.89-.35l-4.93.07-3.21-.07c-.25,0-.37.1-.37.32s.16.34.49.4a2.43,2.43,0,0,1,1.8,1q.48.77.57,4.17c.07,2.27.1,5.23.1,8.9a43.88,43.88,0,0,1-.28,6.76c-.19.7-.83,1.07-1.93,1.09-.33,0-.49.12-.49.37s.21.35.62.35l3.73,0Z" fill="#fff"/><path d="M206.72,78.35a.24.24,0,0,0-.17-.26,5.8,5.8,0,0,0-1,0H199.7a4.35,4.35,0,0,0-1,.06.25.25,0,0,0-.17.25c0,.2.15.32.46.34,1.53.13,2.29.81,2.29,2a24.12,24.12,0,0,1-1.62,5.6l-3.77,10.45c-.32-.71-1-2.64-2.2-5.77s-1.89-5.21-2.24-6.22a20,20,0,0,1-.73-2.56,8.65,8.65,0,0,1-.21-1.51c0-1.33.77-2,2.33-2,.37,0,.56-.13.56-.39s-.29-.3-.86-.3h-9.24q-.45,0-.45.33c0,.19.15.3.45.32a3.83,3.83,0,0,1,1.63.44,4,4,0,0,1,1.2,1.34,43.58,43.58,0,0,1,2.16,5L191.64,94q1.79,4.6,2.61,7.27h1q3.3-8.64,4.23-11.25c1.77-5,2.85-7.78,3.26-8.49A10.93,10.93,0,0,1,204,79.73a3.16,3.16,0,0,1,2-1Q206.72,78.67,206.72,78.35Z" fill="#fff"/><path d="M230.1,101.2c.39-1.53.61-2.44.67-2.75.27-1.45.44-2.28.51-2.5a1.38,1.38,0,0,0,.09-.46c0-.26-.1-.39-.28-.39s-.34.19-.51.58q-2,4.72-8.86,4.73a7.17,7.17,0,0,1-3.4-.59,2.59,2.59,0,0,1-1.27-1.6,24.3,24.3,0,0,1-.27-4.73c0-1.91,0-3.3.06-4.16q4,0,5.15.92a4.65,4.65,0,0,1,1.55,3q.09.42.33.42c.21,0,.32-.2.32-.6-.06-1.28-.09-2.73-.09-4.33,0-1,.05-1.95.14-2.88l.07-.7c0-.35-.11-.52-.33-.52s-.27.13-.35.37a5.47,5.47,0,0,1-1.74,2.87,6,6,0,0,1-3.22.66l-1.83-.05c0-.32,0-.57,0-.74,0-4.16.06-6.7.18-7.64,0-.21,0-.36,0-.44a1.09,1.09,0,0,1,.14-.65,21.8,21.8,0,0,1,4.08-.3,12,12,0,0,1,3.86.43,7.25,7.25,0,0,1,2.23,1.45,14.78,14.78,0,0,1,2.33,3,.38.38,0,0,0,.26.15c.07,0,.13,0,.19-.15a51.62,51.62,0,0,0-1-5.53c-.07,0-1.74,0-5,0q-7.46,0-9.36-.09l-3.6-.19c-.41,0-.62.1-.62.31s.16.31.46.39a5.55,5.55,0,0,1,2,.8,1.6,1.6,0,0,1,.54.81,30.4,30.4,0,0,1,.22,3.25c.07,1.89.11,3.18.11,3.86l0,3.39,0,3.61c0,2.68-.21,4.36-.62,5.06a2.77,2.77,0,0,1-2.58,1c-.39,0-.58.11-.58.35a.24.24,0,0,0,.11.19,13.35,13.35,0,0,0,2.47.1c1.59,0,3.4,0,5.45.14s3.61.13,4.67.13Z" fill="#fff"/><path d="M252.76,91.31a9.14,9.14,0,0,0-3.41-2.21,22,22,0,0,0,3.46-1.29A4.89,4.89,0,0,0,254.67,86a5.23,5.23,0,0,0-1.17-6.82q-1.94-1.65-6.26-1.65l-10.44.23c-.5,0-.75.09-.75.28s.13.26.38.3a4.46,4.46,0,0,1,2.2.73,3.17,3.17,0,0,1,.66,1.82,52.25,52.25,0,0,1,.19,5.55l0,5.48,0,3.6a10.69,10.69,0,0,1-.3,3.09,2.64,2.64,0,0,1-.82,1.26,3.11,3.11,0,0,1-1.86.41q-.6,0-.6.3c0,.24.26.35.76.35h8.73c.52,0,.78-.11.78-.35s-.21-.29-.64-.3a2.45,2.45,0,0,1-2.84-2.58c-.08-.89-.12-2.84-.12-5.86,0-.79,0-1.56.09-2.3a12.73,12.73,0,0,1,2.08-.2,6.37,6.37,0,0,1,3.55.79A4.41,4.41,0,0,1,250,92.38,27.17,27.17,0,0,1,251,97c.34,2.19.86,3.39,1.56,3.61a30.85,30.85,0,0,0,6,.32c.37,0,.55-.1.55-.31s-.16-.32-.47-.34a3.93,3.93,0,0,1-2.76-1.16,8.81,8.81,0,0,1-1.65-4.27A8,8,0,0,0,252.76,91.31Zm-5-3.14a26,26,0,0,1-5.08.48c-.08-.9-.13-1.67-.13-2.33,0-1.92.08-4.49.22-7.73a16.54,16.54,0,0,1,3.51-.42,5.39,5.39,0,0,1,4.23,1.48,5.07,5.07,0,0,1,1.32,3.48,4.85,4.85,0,0,1-1.19,3.26A5.36,5.36,0,0,1,247.75,88.17Z" fill="#fff"/><path d="M275.63,88.8a21.29,21.29,0,0,0-4.06-1.64,17.34,17.34,0,0,1-4.87-2.11,3.24,3.24,0,0,1-1.18-2.7,4.17,4.17,0,0,1,1.08-2.73,4,4,0,0,1,3.22-1.29,6.13,6.13,0,0,1,4,1.52,9.57,9.57,0,0,1,2.76,3.84c.11.24.23.35.37.35s.39-.1.39-.31l-.42-3.32c-.15-1.28-.27-2.13-.35-2.56a.53.53,0,0,0-.32-.17c-.18,0-.31.14-.41.42a2.37,2.37,0,0,1-.63,1A13.47,13.47,0,0,0,272.55,78a8.68,8.68,0,0,0-2.45-.37,7.72,7.72,0,0,0-5.21,1.82,5.37,5.37,0,0,0-2.12,4.16,5.56,5.56,0,0,0,.56,2.33,6,6,0,0,0,1.78,2.17,15.64,15.64,0,0,0,4.55,2,21.84,21.84,0,0,1,3.82,1.5,5.49,5.49,0,0,1,1.94,1.76,4.21,4.21,0,0,1,.73,2.4,4.73,4.73,0,0,1-1.36,3.34,4.94,4.94,0,0,1-3.79,1.46q-4.86,0-7.58-6.83c-.1-.26-.25-.39-.42-.39s-.33.07-.37.22q.39,6.12.51,6.84c.08.48.22.72.4.72s.37-.19.46-.56a2.25,2.25,0,0,1,.78-1.17,11.43,11.43,0,0,0,6.07,1.89,7.89,7.89,0,0,0,5.66-2.2,6.76,6.76,0,0,0,2.31-5A5.57,5.57,0,0,0,277.9,91,6.71,6.71,0,0,0,275.63,88.8Z" fill="#fff"/><path d="M293.54,100.64c0-.19-.15-.3-.44-.34a3.53,3.53,0,0,1-1.84-.6,2.09,2.09,0,0,1-.67-1.09,31.54,31.54,0,0,1-.31-4.09c-.1-2.28-.14-4.33-.14-6.16q0-7.44.48-8.6a2.72,2.72,0,0,1,2.44-1.41c.32,0,.48-.16.48-.34s-.3-.35-.88-.35l-4.93.07-3.22-.07c-.25,0-.37.1-.37.32s.16.34.49.4a2.41,2.41,0,0,1,1.8,1c.32.51.51,1.9.58,4.17s.09,5.23.09,8.9a42.5,42.5,0,0,1-.28,6.76c-.19.7-.83,1.07-1.92,1.09-.33,0-.5.12-.5.37s.21.35.62.35l3.73,0,4.38,0C293.4,101,293.54,100.85,293.54,100.64Z" fill="#fff"/><path d="M303.89,77.89c-1.54-.1-2.77-.14-3.69-.14h-1.07a48.79,48.79,0,0,0-.69,5.67.42.42,0,0,0,.33.17c.26,0,.41-.15.47-.44a6.19,6.19,0,0,1,2-2.83q1.71-1.59,5.52-1.59c.38,0,1,0,1.94.07.25,3.55.37,7.14.37,10.79q0,6.41-.13,7.74a3,3,0,0,1-3.24,2.91c-.55,0-.83.11-.83.33s.15.34.43.34h10.84c.46,0,.69-.12.69-.35s-.24-.3-.72-.3c-2,0-3.14-.68-3.47-2s-.48-5.8-.48-13.35q0-3.42.21-6.08a39.1,39.1,0,0,1,4.92.28,5.12,5.12,0,0,1,2.21.94,8.09,8.09,0,0,1,1.9,2.16,8.81,8.81,0,0,0,.68,1,.52.52,0,0,0,.38.15c.24,0,.37-.14.37-.43,0-.1,0-.2,0-.3-.07-.42-.14-1.15-.21-2.2a24.45,24.45,0,0,0-.28-2.65c-1.69,0-3,0-4,.15S315,78,311.51,78,305.54,78,303.89,77.89Z" fill="#fff"/><path d="M349.89,78h-6.64c-.67,0-1,.11-1,.34s.2.31.6.31a2.89,2.89,0,0,1,1.49.44,1.28,1.28,0,0,1,.73,1.15,2.6,2.6,0,0,1-.36,1.1c-.24.47-1,1.65-2.38,3.56a49.18,49.18,0,0,1-3,4c-2.75-3.79-4.39-6.11-4.94-7a4.3,4.3,0,0,1-.81-1.89c0-.77.74-1.22,2.23-1.34.29,0,.44-.13.44-.31a.28.28,0,0,0-.16-.29,5.33,5.33,0,0,0-1,0h-7.7a4.52,4.52,0,0,0-1,.06.25.25,0,0,0-.16.26c0,.2.21.32.63.35a3.52,3.52,0,0,1,1.75.73,18.06,18.06,0,0,1,3,3.65q2.1,3,3.54,5.49a18.88,18.88,0,0,1,1.52,2.88,22.14,22.14,0,0,1,.32,4.16,8.58,8.58,0,0,1-.57,3.55,2.39,2.39,0,0,1-2.27,1.27c-.33,0-.5.11-.5.3s.23.35.67.35c.17,0,.54,0,1.13-.07s1.67-.07,2.81-.07L343,101c.41,0,.61-.12.61-.36s-.19-.31-.56-.35c-1.45-.13-2.3-.49-2.57-1.08s-.39-2.45-.39-5.6a19.3,19.3,0,0,1,.28-4.4,29.49,29.49,0,0,1,2.61-3.8l3.07-4.15a8.27,8.27,0,0,1,2.33-2.13,4.44,4.44,0,0,1,2-.48c.27,0,.4-.1.4-.3S350.51,78,349.89,78Z" fill="#fff"/><path d="M140.28,129.42c-.74-.06-1.18-.3-1.29-.71a32,32,0,0,1-.18-4.82c0-.83,0-2.76.08-5.8v-1.64q0-.36-.21-.36a.44.44,0,0,0-.22.11,5,5,0,0,1-1.55.66,8.07,8.07,0,0,1-1.86.28c-.3,0-.45.07-.45.2a.23.23,0,0,0,.14.23,1.86,1.86,0,0,0,.68.07,1.52,1.52,0,0,1,1.23.47,3.45,3.45,0,0,1,.44,1.89q0,1.43,0,6.48a6,6,0,0,1-.29,2.37c-.19.35-.73.55-1.6.61q-.42,0-.42.27c0,.15.13.23.4.23h.38q1.11-.06,3.15-.06c.65,0,1.12,0,1.41,0l.22,0c.26,0,.39-.11.39-.31S140.62,129.46,140.28,129.42Z" fill="#fff"/><path d="M151.09,121a4.12,4.12,0,0,0-1.5.29,5.65,5.65,0,0,0-1.43.88c.08-.73.31-2.07.69-4,.56,0,1,.08,1.3.08a4.76,4.76,0,0,0,3.26-1.1,2.94,2.94,0,0,0,1.26-2c0-.11-.06-.17-.19-.17s-.23.1-.37.3a3.47,3.47,0,0,1-2.86,1.49,26.87,26.87,0,0,1-2.69-.36,9.32,9.32,0,0,0-.3,1.51l-.43,2.8q-.57,3.67-.57,3.75c0,.17.07.25.21.25s.25-.18.29-.53a3,3,0,0,1,1-1.76,2.93,2.93,0,0,1,2.13-.88,1.84,1.84,0,0,1,1.57.69,3.5,3.5,0,0,1,.52,2.1,6.65,6.65,0,0,1-1.06,3.86,3.33,3.33,0,0,1-2.89,1.54,2,2,0,0,1-1.46-.47,1.4,1.4,0,0,1-.45-1,2.35,2.35,0,0,1,.12-.61,2.62,2.62,0,0,0,.1-.57.75.75,0,0,0-.3-.6,1,1,0,0,0-.66-.25,1.16,1.16,0,0,0-.78.3,1.1,1.1,0,0,0-.35.89,2.34,2.34,0,0,0,1.11,2,4.52,4.52,0,0,0,2.69.78,5.94,5.94,0,0,0,4.07-1.66,4.94,4.94,0,0,0,1.86-3.77,3.37,3.37,0,0,0-1.2-2.73A4,4,0,0,0,151.09,121Z" fill="#fff"/><path d="M162.77,116.12a4.74,4.74,0,0,0-2.94,1,7.41,7.41,0,0,0-2.11,2.58,7.8,7.8,0,0,0-.82,3.53,7.62,7.62,0,0,0,1.64,4.89,5,5,0,0,0,4,2.06,5.12,5.12,0,0,0,4.17-2.16,7.72,7.72,0,0,0,1.7-4.94,7.48,7.48,0,0,0-1.68-4.84A5,5,0,0,0,162.77,116.12Zm2.49,12.09a3.1,3.1,0,0,1-2.6,1.44,3,3,0,0,1-2.58-1.72,8.91,8.91,0,0,1-1.07-4.7,9.76,9.76,0,0,1,1-4.84,3.07,3.07,0,0,1,2.71-1.78,3,3,0,0,1,2.58,1.55,9.22,9.22,0,0,1,1,4.74C166.29,125.48,165.94,127.25,165.26,128.21Z" fill="#fff"/><path d="M175,120.47a1.75,1.75,0,0,1-.87.29,1,1,0,0,1-.84-.37,2.92,2.92,0,0,1-.29-1.59c0-1,0-2.12.11-3.21,1-.08,1.68-.12,1.94-.12.07,0,.1-.2.11-.42,0-.07-.16-.1-.43-.1l-1.62,0v-1.15c0-.25,0-.47,0-.66a.71.71,0,0,0,0-.14c0-.14,0-.21-.14-.21s-.14.09-.16.26a2.14,2.14,0,0,1-.84,1.52,4.81,4.81,0,0,1-1,.65q-.18.06-.18.15c0,.07.05.11.16.11l.45,0,.7.06c-.09,1.76-.13,3-.13,3.73a2.62,2.62,0,0,0,.38,1.57,1.3,1.3,0,0,0,1.13.53,2.1,2.1,0,0,0,1.29-.39c.35-.25.53-.44.53-.56s0-.1-.1-.1A.65.65,0,0,0,175,120.47Z" fill="#fff"/><path d="M183.28,121a.63.63,0,0,1-.37-.16.49.49,0,0,1-.21-.34c0-.14,0-.52,0-1.14l0-2a2.89,2.89,0,0,0-.52-2,2,2,0,0,0-1.5-.55,2.63,2.63,0,0,0-2.12,1.1q0-.47,0-1.17l0-3.68c-.56,0-1.08,0-1.56,0h-.48a.07.07,0,0,0,0,.07q0,.1.21.15a.88.88,0,0,1,.57.47,2.84,2.84,0,0,1,.27,1.3c0,.6,0,1.86,0,3.79,0,1.08,0,2-.09,2.66a3.66,3.66,0,0,1-.21,1.2.72.72,0,0,1-.48.2q-.18,0-.18.12c0,.08.07.12.22.12s.52,0,.84,0l1.49,0q.18,0,.18-.12c0-.07-.06-.12-.18-.13a.66.66,0,0,1-.55-.37,4.79,4.79,0,0,1-.1-1.2c0-.91,0-1.67.09-2.3a2.21,2.21,0,0,1,.58-1.42,1.5,1.5,0,0,1,1.12-.49,1.2,1.2,0,0,1,1,.58,5.12,5.12,0,0,1,.4,2.55,12.28,12.28,0,0,1-.1,2.19c-.06.23-.27.37-.62.41-.11,0-.17.06-.17.13s0,.1.13.12h2.19c.22,0,.32,0,.32-.13S183.42,121,183.28,121Z" fill="#fff"/><path d="M202.55,129.58a2.32,2.32,0,0,1-1.92-1.14,44.3,44.3,0,0,1-2.21-5.53q-2.49-7-3.91-9.94h-.59c-1.18,2.58-2.28,5.28-3.28,8.1-1.09,3.1-1.89,5.24-2.41,6.44a2.9,2.9,0,0,1-2.23,2c-.24,0-.36.12-.36.25s.14.23.41.23c.49,0,1.44-.05,2.86-.05q.42,0,2.46.09c.1-.06.15-.12.15-.19s-.16-.26-.47-.28a3,3,0,0,1-1.29-.42,1.22,1.22,0,0,1-.65-1.15,18.67,18.67,0,0,1,1.32-4.44l5.9-.07.75,2.18a12.6,12.6,0,0,1,.77,2.73.94.94,0,0,1-.41.84,3.59,3.59,0,0,1-1.49.37c-.2,0-.29.09-.29.2s.13.23.39.23c.52-.06,1.71-.09,3.55-.09,1.21,0,2.2,0,3,.1h.17c.15,0,.22-.06.22-.17S202.83,129.6,202.55,129.58Zm-10-6.9c-.39,0-1,0-1.88.07a65.7,65.7,0,0,1,2.75-7c.23.6.68,1.77,1.37,3.5q.85,2.19,1.32,3.51Z" fill="#fff"/><path d="M217.1,129.45a1.5,1.5,0,0,1-.85-.48,3.33,3.33,0,0,1-.19-1.47l.07-4.28a6,6,0,0,0-.43-2.69,2.47,2.47,0,0,0-1.25-1.12,4.55,4.55,0,0,0-1.67-.32,3.81,3.81,0,0,0-2.09.62,6,6,0,0,0-1.74,1.87,8.18,8.18,0,0,0-.37-2.53l-1.71,0h-1c-.26,0-.38.07-.38.21s.16.24.49.32a1.29,1.29,0,0,1,.85.67,7.34,7.34,0,0,1,.31,2.8c0,1.61,0,3-.07,4a5.36,5.36,0,0,1-.27,1.9,1.2,1.2,0,0,1-.78.4c-.41.08-.61.19-.61.33s.19.21.56.21l1,0q2,0,2.34,0l.66.05c.19,0,.28-.06.28-.18s-.09-.23-.28-.24q-.88-.11-1.11-.57a6.3,6.3,0,0,1-.22-2.16,10.82,10.82,0,0,1,1-5.35,2.88,2.88,0,0,1,2.47-1.61,2,2,0,0,1,1.68.89,6.41,6.41,0,0,1,.67,3.56c0,.65,0,1.5-.06,2.54a10.34,10.34,0,0,1-.14,1.83.87.87,0,0,1-.31.44,2.61,2.61,0,0,1-.91.31c-.17,0-.26.1-.26.21s.16.21.47.21c.79-.06,1.53-.09,2.21-.09a9.3,9.3,0,0,1,1.73.12h.18c.14,0,.21-.06.21-.19S217.39,129.53,217.1,129.45Z" fill="#fff"/><path d="M232,129.45a1.43,1.43,0,0,1-.84-.48,3.28,3.28,0,0,1-.2-1.47l.08-4.28a6,6,0,0,0-.44-2.69,2.45,2.45,0,0,0-1.24-1.12,4.59,4.59,0,0,0-1.67-.32,3.79,3.79,0,0,0-2.09.62,6.11,6.11,0,0,0-1.75,1.87,7.88,7.88,0,0,0-.37-2.53l-1.71,0h-1c-.25,0-.38.07-.38.21s.17.24.5.32a1.34,1.34,0,0,1,.85.67,7.64,7.64,0,0,1,.3,2.8c0,1.61,0,3-.07,4a4.9,4.9,0,0,1-.27,1.9,1.15,1.15,0,0,1-.78.4q-.6.12-.6.33c0,.14.18.21.55.21l1,0q2,0,2.34,0l.66.05q.27,0,.27-.18t-.27-.24q-.9-.11-1.11-.57a6.21,6.21,0,0,1-.23-2.16q0-3.75,1-5.35a2.87,2.87,0,0,1,2.47-1.61,2,2,0,0,1,1.67.89,6.41,6.41,0,0,1,.67,3.56c0,.65,0,1.5,0,2.54a11,11,0,0,1-.15,1.83.92.92,0,0,1-.3.44,2.69,2.69,0,0,1-.92.31c-.17,0-.25.1-.25.21s.15.21.47.21c.79-.06,1.52-.09,2.21-.09a9.17,9.17,0,0,1,1.72.12h.18c.14,0,.22-.06.22-.19S232.3,129.53,232,129.45Z" fill="#fff"/><path d="M236.53,113.14a1.14,1.14,0,0,0-.32.85,1,1,0,0,0,.38.84,1.3,1.3,0,0,0,.86.31,1.11,1.11,0,0,0,.86-.35,1.29,1.29,0,0,0,.31-.85,1.08,1.08,0,0,0-.38-.78,1.22,1.22,0,0,0-.87-.35A1.14,1.14,0,0,0,236.53,113.14Z" fill="#fff"/><path d="M240,129.5a1.55,1.55,0,0,1-.9-.27c-.2-.17-.3-.55-.3-1.16l0-1.53v-2l0-2.67V119q-.54,0-1.95.12a9.94,9.94,0,0,0-1.51.16.21.21,0,0,0-.1.18c0,.14.1.2.3.2a1.6,1.6,0,0,1,1.23.42,5.38,5.38,0,0,1,.32,2.49l-.09,5.26a2.51,2.51,0,0,1-.19,1.26,1.57,1.57,0,0,1-.91.31c-.47.06-.7.17-.7.32s.1.23.3.23a1.15,1.15,0,0,0,.26,0,16,16,0,0,1,2.24-.1,17.55,17.55,0,0,1,2.2.15l.23,0c.18,0,.26-.07.26-.21S240.44,129.53,240,129.5Z" fill="#fff"/><path d="M254.37,119.2l-1.14,0-1.9,0c-.22,0-.32.09-.32.26s.14.21.42.22c.47,0,.71.25.71.64,0,.9-.91,3.35-2.74,7.38-2.05-4.24-3.08-6.68-3.08-7.34,0-.37.22-.59.65-.66s.46-.14.46-.27-.15-.24-.45-.24h-1.75l-2.21,0c-.24,0-.36.08-.36.25s.09.21.29.24a1.61,1.61,0,0,1,.62.19,2.35,2.35,0,0,1,.51.62,18.48,18.48,0,0,1,1.14,2.31l1.58,3.52,1.51,3.28c.15.35.28.53.38.53s.27-.14.37-.43a15.49,15.49,0,0,1,.7-1.58q.6-1.27,2-4.73a19.13,19.13,0,0,1,1.27-2.81,1.88,1.88,0,0,1,1.51-.89c.19,0,.29-.08.29-.21S254.64,119.2,254.37,119.2Z" fill="#fff"/><path d="M261.61,119a4.74,4.74,0,0,0-3.43,1.67,5.7,5.7,0,0,0-1.61,4.15,5.32,5.32,0,0,0,1.46,3.84,4.76,4.76,0,0,0,3.57,1.52,5.63,5.63,0,0,0,2.6-.61,3.81,3.81,0,0,0,1.65-1.5q0-.33-.21-.33c-.07,0-.23.11-.49.34a4.1,4.1,0,0,1-2.83,1.22,3.31,3.31,0,0,1-2.63-1.24,4.53,4.53,0,0,1-1.06-3c0-.25,0-.6.05-1l6.36-.1c.59,0,.91,0,1-.13a.76.76,0,0,0,.08-.39,4,4,0,0,0-1.38-3.05A4.44,4.44,0,0,0,261.61,119Zm2.12,4.06a2.28,2.28,0,0,1-1.17.3l-.68,0c-1,0-2.1,0-3.2-.08a5.06,5.06,0,0,1,1.17-3,2.63,2.63,0,0,1,1.83-.91,2.25,2.25,0,0,1,1.72.79,2.66,2.66,0,0,1,.74,1.86A1.07,1.07,0,0,1,263.73,123.07Z" fill="#fff"/><path d="M276,119.05a3.06,3.06,0,0,0-1.91.71,7,7,0,0,0-1.71,2.14c-.07-1.37-.13-2.29-.19-2.75l-2.34.13a5.75,5.75,0,0,0-1.16.12.2.2,0,0,0-.09.17q0,.23.45.24c.74,0,1.16.33,1.28.89a40.21,40.21,0,0,1,.17,5,14.17,14.17,0,0,1-.19,3.28c-.13.3-.46.46-1,.5s-.57.09-.57.22.14.22.43.22h4.05q.6,0,.6-.27c0-.1-.08-.16-.23-.17-.56-.07-.91-.23-1-.47a9.57,9.57,0,0,1-.21-2.83,17.19,17.19,0,0,1,.23-3.54,3.76,3.76,0,0,1,.9-1.56,1.9,1.9,0,0,1,1.31-.71c.45,0,.81.29,1.08.85s.49.68.81.68c.69,0,1-.41,1-1.21a1.58,1.58,0,0,0-.51-1.14A1.67,1.67,0,0,0,276,119.05Z" fill="#fff"/><path d="M287.65,124.47a9.9,9.9,0,0,0-1.8-1,25.49,25.49,0,0,1-2.42-1.17,2.66,2.66,0,0,1-.45-.54,1.31,1.31,0,0,1-.25-.8,1.39,1.39,0,0,1,.59-1.15,2.45,2.45,0,0,1,1.5-.44,3,3,0,0,1,1.18.26,2.57,2.57,0,0,1,1.11,1.23,8.12,8.12,0,0,1,.61,1.3c.08.25.18.37.31.37s.21-.14.21-.41c0-.44,0-1-.07-1.69a5.29,5.29,0,0,0-.14-1.12.2.2,0,0,0-.17-.09c-.06,0-.14.06-.24.19s-.19.21-.28.21a.75.75,0,0,1-.35-.1,5.07,5.07,0,0,0-2.29-.65,3.5,3.5,0,0,0-2.41.89,2.82,2.82,0,0,0-1,2.19,2.63,2.63,0,0,0,.32,1.27,2.43,2.43,0,0,0,.87.93,21.35,21.35,0,0,0,2.22,1.08c1.61.72,2.42,1.55,2.42,2.48a1.73,1.73,0,0,1-.66,1.43,2.34,2.34,0,0,1-1.5.52,2.74,2.74,0,0,1-2.1-1,7.35,7.35,0,0,1-1.38-2.46c-.05-.16-.13-.24-.22-.24s-.25.15-.25.47,0,.68,0,1.42,0,1.4.05,1.64.09.36.19.36.25-.11.39-.35a.47.47,0,0,1,.38-.27,3.27,3.27,0,0,1,.8.31,5.22,5.22,0,0,0,2.12.57,3.54,3.54,0,0,0,2.58-1.06,3.4,3.4,0,0,0,1.09-2.53,2.52,2.52,0,0,0-.29-1.19A2.63,2.63,0,0,0,287.65,124.47Z" fill="#fff"/><path d="M301.85,129.34l-.21,0a1.86,1.86,0,0,1-.36,0c-.42,0-.71-.27-.87-.82a11.7,11.7,0,0,1-.23-2.76l.08-3.36a6.14,6.14,0,0,0-.23-2.06,2.06,2.06,0,0,0-1.09-1,5.56,5.56,0,0,0-2.33-.41,5.21,5.21,0,0,0-2.89.7,2,2,0,0,0-1.06,1.66,1,1,0,0,0,.34.83,1,1,0,0,0,.61.28c.52,0,.86-.4,1-1.18a2.69,2.69,0,0,1,.62-1.44,1.77,1.77,0,0,1,1.21-.36,1.85,1.85,0,0,1,1.51.64,2.66,2.66,0,0,1,.53,1.76,1.66,1.66,0,0,1-.41,1.16,7,7,0,0,1-2.43,1.11,14.55,14.55,0,0,0-2,.8,2.82,2.82,0,0,0-1,1,2.88,2.88,0,0,0-.44,1.56,2.35,2.35,0,0,0,.73,1.8,2.8,2.8,0,0,0,2,.69,4.19,4.19,0,0,0,2-.45,4.06,4.06,0,0,0,1.48-1.36,2.73,2.73,0,0,0,.28,1.41,1.14,1.14,0,0,0,1,.33c1.66,0,2.5-.16,2.5-.48Q302.15,129.34,301.85,129.34Zm-3.67-1.64a2.81,2.81,0,0,1-1,1.15,2.37,2.37,0,0,1-1.38.45,1.51,1.51,0,0,1-1.19-.56,2,2,0,0,1-.48-1.36,2.16,2.16,0,0,1,.59-1.52,7.14,7.14,0,0,1,1.92-1.31,5.59,5.59,0,0,0,1.72-1.21c.06.84.09,1.6.09,2.29A5.29,5.29,0,0,1,298.18,127.7Z" fill="#fff"/><path d="M311.55,119.05a3.08,3.08,0,0,0-1.91.71,7.36,7.36,0,0,0-1.71,2.14c-.06-1.37-.13-2.29-.18-2.75l-2.34.13a5.62,5.62,0,0,0-1.16.12.19.19,0,0,0-.1.17c0,.15.15.23.46.24.74,0,1.16.33,1.28.89a40.21,40.21,0,0,1,.17,5,14.83,14.83,0,0,1-.19,3.28c-.13.3-.46.46-1,.5-.38,0-.58.09-.58.22s.15.22.44.22h4.05c.39,0,.59-.09.59-.27s-.07-.16-.23-.17a1.35,1.35,0,0,1-1-.47,10.17,10.17,0,0,1-.2-2.83,17.19,17.19,0,0,1,.23-3.54,3.66,3.66,0,0,1,.9-1.56,1.9,1.9,0,0,1,1.31-.71c.45,0,.81.29,1.08.85s.49.68.81.68c.69,0,1-.41,1-1.21a1.58,1.58,0,0,0-.51-1.14A1.68,1.68,0,0,0,311.55,119.05Z" fill="#fff"/><path d="M328,119.13l-.36,0c-.38,0-1.13,0-2.26,0h-.8l-.68,0c-.2,0-.29.07-.29.21s.12.24.36.26c.88.08,1.33.47,1.33,1.17a8.34,8.34,0,0,1-.4,2.16c-.26.9-.85,2.61-1.78,5.11a58.59,58.59,0,0,1-2.89-7.41c0-.46.33-.79,1-1,.37-.1.56-.21.56-.35s-.1-.24-.32-.24l-.36.05a22,22,0,0,1-2.48.08,12.1,12.1,0,0,1-1.69-.1l-.29,0c-.2,0-.31.09-.31.26s.14.23.42.26a1.39,1.39,0,0,1,.85.5,16,16,0,0,1,1.45,2.93c.71,1.67,1.36,3.21,1.94,4.64a9.77,9.77,0,0,1,.87,3,6.66,6.66,0,0,1-1.13,3c-.75,1.28-1.43,1.91-2,1.91-.39,0-.59-.23-.63-.69a1,1,0,0,0-1.13-1,1.16,1.16,0,0,0-.79.36,1.15,1.15,0,0,0-.39.85,1.64,1.64,0,0,0,.58,1.17,2.15,2.15,0,0,0,1.57.57,3.29,3.29,0,0,0,2-.75,7.28,7.28,0,0,0,1.92-2.73q.92-2,2.43-6.43c1-3,1.74-5,2.14-5.8a2.43,2.43,0,0,1,1.6-1.48c.23-.05.35-.14.35-.27S328.18,119.13,328,119.13Z" fill="#fff"/><polygon points="113.37 133.86 109.95 139.63 113.37 145.4 97.12 145.4 97.12 133.86 113.37 133.86" fill="#efbb5a"/><polygon points="102.56 142.21 97.02 145.4 97.02 138.78 102.56 142.21" fill="#ffeabf"/><polygon points="0 133.86 3.42 139.63 0 145.4 16.26 145.4 16.26 133.86 0 133.86" fill="#efbb5a"/><polygon points="10.81 142.21 16.35 145.4 16.35 138.78 10.81 142.21" fill="#ffeabf"/><path d="M10.81,142.21c30.46-7.16,59.24-6.87,92.58,0V127.42c-33.09-6.37-61.84-6.78-92.58,0Z" fill="#efbb5a"/><path d="M33.07,126.93l.36,0,.79,6.88,1.7-.2,0,.36-4.44.51,0-.36,1.73-.2-.66-5.77a3.4,3.4,0,0,1-1.52.8l-.07-.36A3.19,3.19,0,0,0,33.07,126.93Z" fill="#1c355e"/><path d="M42.41,131a2.74,2.74,0,0,1-2.7,2.81,2.69,2.69,0,0,1-3.06-2.2,2.62,2.62,0,0,1,1.77-2.48,2.68,2.68,0,0,1-1.77-2.16A2.37,2.37,0,0,1,39,124.43a2.15,2.15,0,0,1,1.14,4.14C41.21,129,42.3,129.6,42.41,131Zm-2.74-2.58.16.06a1.94,1.94,0,0,0,1-1.95,1.75,1.75,0,0,0-2-1.7c-1,.09-1.57.75-1.51,1.46C37.46,127.38,38.35,127.89,39.67,128.39Zm1.95,3.07c-.09-1.07-1-1.47-2.38-2l-.49-.21a2.18,2.18,0,0,0-1.22,2.2,2,2,0,0,0,2.25,2A1.84,1.84,0,0,0,41.62,131.46Z" fill="#1c355e"/><path d="M47.59,128.86a6.31,6.31,0,0,0-1.4,3.77c0,.92.21,1.32.23,1.72s-.17.85-.63.87-.63-.29-.65-.88a10.56,10.56,0,0,1,2.14-5.67l1.31-1.85L44.8,127c-.71,0-.95.1-1.08,1.45h-.33l.14-1.32c.07-.63.21-1,1.25-1.1l4.54-.21.14.32Z" fill="#1c355e"/><path d="M52.41,125.68h.36l.12,6.93,1.72,0v.36l-4.46.08v-.37l1.74,0-.11-5.8a3.45,3.45,0,0,1-1.58.64l0-.36A3.21,3.21,0,0,0,52.41,125.68Z" fill="#1c355e"/><path d="M59.41,129.57v.36l-4,0v-.37Z" fill="#1c355e"/><path d="M65.61,130.54l-.29,2.63L60.11,133v-.46l.9-.69c1.95-1.48,3.34-2.56,3.39-4a1.59,1.59,0,0,0-1.73-1.72,1.63,1.63,0,0,0-1.83,1.25.59.59,0,0,1,1.14.23.65.65,0,0,1-.73.62.75.75,0,0,1-.74-.86c0-.83.95-1.71,2.46-1.65s2.59.81,2.54,2.26-1.18,1.76-4.24,4.05l2.82.1c1,0,1-.13,1.18-1.64Z" fill="#1c355e"/><path d="M72.9,130.06c-.15,2.17-1.7,3.67-3.16,3.57s-2.81-1.81-2.66-4,1.7-3.65,3.18-3.55S73.05,127.9,72.9,130.06Zm-2.68-3.57c-1.09-.08-1.85,1-2,3.24s.45,3.44,1.54,3.52,1.86-1,2-3.27S71.31,126.56,70.22,126.49Z" fill="#1c355e"/><path d="M79.29,131.65l-.46,2.61-5.19-.53,0-.46.95-.62c2-1.36,3.49-2.35,3.63-3.74a1.59,1.59,0,0,0-1.62-1.82,1.63,1.63,0,0,0-1.91,1.12.59.59,0,0,1,1.13.31.66.66,0,0,1-.77.57.76.76,0,0,1-.69-.91c.08-.83,1.06-1.64,2.57-1.49,1.35.14,2.53,1,2.38,2.42s-1.28,1.68-4.48,3.77l2.8.28c1,.1,1-.07,1.29-1.56Z" fill="#1c355e"/><path d="M83.48,127.48l.36,0L83,134.39l1.7.22,0,.36-4.43-.56.05-.36,1.72.22.72-5.76a3.39,3.39,0,0,1-1.66.42l0-.36A3.19,3.19,0,0,0,83.48,127.48Z" fill="#1c355e"/></svg>